<svg xmlns="http://www.w3.org/2000/svg" xmlns:xlink="http://www.w3.org/1999/xlink" width="52.332" height="49" viewBox="0 0 52.332 49"><defs><linearGradient id="linear-gradient" x1="0.29" y1="0.136" x2="0.646" y2="1.21" gradientUnits="objectBoundingBox"><stop offset="0" stop-color="#ffc800"></stop><stop offset="1" stop-color="#ff247b"></stop></linearGradient><radialGradient id="radial-gradient" cx="0.298" cy="0.07" r="0.843" gradientTransform="translate(0.085) scale(0.83 1)" gradientUnits="objectBoundingBox"><stop offset="0" stop-color="#fff"></stop><stop offset="0.162" stop-color="#fff9fb"></stop><stop offset="0.377" stop-color="#ffe8f1"></stop><stop offset="0.622" stop-color="#ffcce0"></stop><stop offset="0.886" stop-color="#ffa6c9"></stop><stop offset="1" stop-color="#ff94be"></stop></radialGradient><linearGradient id="linear-gradient-2" x1="0.235" y1="1.296" x2="0.539" y2="0.118" xlink:href="#linear-gradient"></linearGradient><radialGradient id="radial-gradient-2" cx="0.349" cy="0.224" r="0.644" gradientTransform="translate(-0.121) scale(1.242 1)" xlink:href="#radial-gradient"></radialGradient><linearGradient id="linear-gradient-3" x1="0.817" y1="0.142" x2="0.334" y2="0.859" xlink:href="#linear-gradient"></linearGradient><radialGradient id="radial-gradient-3" cx="0.278" cy="0.289" r="0.848" gradientTransform="translate(0.002)" xlink:href="#radial-gradient"></radialGradient><linearGradient id="linear-gradient-4" x1="0.899" y1="0.464" x2="-0.42" y2="0.517" xlink:href="#linear-gradient"></linearGradient><radialGradient id="radial-gradient-4" cx="0.57" cy="0.276" r="0.564" gradientTransform="translate(-0.52) scale(2.04 1)" xlink:href="#radial-gradient"></radialGradient><radialGradient id="radial-gradient-5" cx="0.394" cy="0.103" r="1.206" gradientTransform="translate(0.034) scale(0.932 1)" xlink:href="#linear-gradient"></radialGradient><radialGradient id="radial-gradient-6" cx="0.554" cy="0.178" r="0.824" gradientTransform="translate(0.038) scale(0.923 1)" xlink:href="#radial-gradient"></radialGradient><linearGradient id="linear-gradient-5" x1="1.112" y1="-0.234" x2="-0.044" y2="1.276" gradientUnits="objectBoundingBox"><stop offset="0" stop-color="#870000"></stop><stop offset="0.504" stop-color="#930000"></stop><stop offset="1" stop-color="#900"></stop></linearGradient><radialGradient id="radial-gradient-7" cx="0.634" cy="0.783" r="0.727" gradientTransform="translate(0.105) scale(0.79 1)" gradientUnits="objectBoundingBox"><stop offset="0" stop-color="#ff2e93"></stop><stop offset="1" stop-color="#fff"></stop></radialGradient><linearGradient id="linear-gradient-6" x1="0.41" y1="-0.518" x2="0.986" y2="0.353" gradientUnits="objectBoundingBox"><stop offset="0" stop-color="#ffff01"></stop><stop offset="0.148" stop-color="#c5c500"></stop><stop offset="0.319" stop-color="#8a8a00"></stop><stop offset="0.484" stop-color="#585800"></stop><stop offset="0.639" stop-color="#323200"></stop><stop offset="0.781" stop-color="#161600"></stop><stop offset="0.906" stop-color="#050500"></stop><stop offset="1"></stop></linearGradient><radialGradient id="radial-gradient-8" cx="0.766" cy="0.503" r="0.378" gradientTransform="translate(-1.137) scale(3.275 1)" xlink:href="#radial-gradient-7"></radialGradient><radialGradient id="radial-gradient-9" cx="0.234" cy="0.503" r="0.377" gradientTransform="matrix(-3.757, 0, 0, 1, -134.287, 0)" xlink:href="#radial-gradient-7"></radialGradient><radialGradient id="radial-gradient-10" cx="0.459" cy="0.56" r="0.501" gradientTransform="translate(0.057) scale(0.885 1)" gradientUnits="objectBoundingBox"><stop offset="0" stop-color="#d90074"></stop><stop offset="1" stop-color="#fff"></stop></radialGradient><radialGradient id="radial-gradient-11" cx="0.508" cy="0.503" r="0.445" gradientTransform="translate(-0.013) scale(1.026 1)" gradientUnits="objectBoundingBox"><stop offset="0" stop-color="#bd0048"></stop><stop offset="1" stop-color="#fff"></stop></radialGradient><linearGradient id="linear-gradient-7" x1="-1.832" y1="-0.268" x2="10.126" y2="3.496" gradientUnits="objectBoundingBox"><stop offset="0" stop-color="#ffff01"></stop><stop offset="0.146" stop-color="#ffff39"></stop><stop offset="0.317" stop-color="#ffff74"></stop><stop offset="0.483" stop-color="#ffffa6"></stop><stop offset="0.638" stop-color="#ffc"></stop><stop offset="0.781" stop-color="#ffffe8"></stop><stop offset="0.906" stop-color="#fffff9"></stop><stop offset="1" stop-color="#fff"></stop></linearGradient><linearGradient id="linear-gradient-8" x1="-8.222" y1="-3.652" x2="16.389" y2="8.097" xlink:href="#linear-gradient-7"></linearGradient><linearGradient id="linear-gradient-9" x1="-12.75" y1="-2.205" x2="6.123" y2="1.787" xlink:href="#linear-gradient-7"></linearGradient><linearGradient id="linear-gradient-10" x1="0.428" y1="0.143" x2="0.497" y2="0.718" xlink:href="#linear-gradient-6"></linearGradient><linearGradient id="linear-gradient-11" x1="0.587" y1="0.259" x2="0.221" y2="1.359" gradientUnits="objectBoundingBox"><stop offset="0" stop-color="#ed4300"></stop><stop offset="0.038" stop-color="#ec4400"></stop><stop offset="0.586" stop-color="#e55500"></stop><stop offset="1" stop-color="#e35b00"></stop></linearGradient><linearGradient id="linear-gradient-12" x1="-33.767" y1="-10.744" x2="-33.886" y2="-9.464" xlink:href="#linear-gradient-6"></linearGradient><linearGradient id="linear-gradient-13" x1="0.203" y1="0.293" x2="1.274" y2="1.086" xlink:href="#linear-gradient-6"></linearGradient><linearGradient id="linear-gradient-14" x1="0.399" y1="0.111" x2="0.885" y2="2.099" xlink:href="#linear-gradient-6"></linearGradient><linearGradient id="linear-gradient-15" x1="0.657" y1="0.15" x2="0.172" y2="1.274" xlink:href="#linear-gradient-6"></linearGradient><linearGradient id="linear-gradient-16" x1="0.115" y1="0.534" x2="1.371" y2="0.419" gradientUnits="objectBoundingBox"><stop offset="0" stop-color="#ffff01"></stop><stop offset="0.259" stop-color="#c0c000"></stop><stop offset="0.856" stop-color="#262600"></stop><stop offset="1"></stop></linearGradient><linearGradient id="linear-gradient-17" x1="0.326" y1="0.888" x2="0.646" y2="0.213" gradientUnits="objectBoundingBox"><stop offset="0" stop-color="#ffff01"></stop><stop offset="0.39" stop-color="#9a9a00"></stop><stop offset="1"></stop></linearGradient><linearGradient id="linear-gradient-18" x1="0.979" y1="0.804" x2="0.378" y2="0.508" xlink:href="#linear-gradient-17"></linearGradient><linearGradient id="linear-gradient-19" x1="0.794" y1="-0.433" x2="0.14" y2="1.374" gradientUnits="objectBoundingBox"><stop offset="0" stop-color="#ffff01"></stop><stop offset="0.003" stop-color="#fffe01"></stop><stop offset="0.243" stop-color="#ffcd28"></stop><stop offset="0.47" stop-color="#ffa746"></stop><stop offset="0.679" stop-color="#ff8b5c"></stop><stop offset="0.862" stop-color="#ff7a69"></stop><stop offset="1" stop-color="#ff756e"></stop></linearGradient><linearGradient id="linear-gradient-20" x1="0.473" y1="0.575" x2="0.191" y2="1.963" xlink:href="#linear-gradient-6"></linearGradient><linearGradient id="linear-gradient-21" x1="-0.331" y1="-1.033" x2="2.253" y2="4.626" xlink:href="#linear-gradient-7"></linearGradient><linearGradient id="linear-gradient-22" x1="0.499" y1="0.572" x2="0.398" y2="1.964" xlink:href="#linear-gradient-6"></linearGradient><radialGradient id="radial-gradient-12" cx="0.5" cy="0.5" r="0.5" gradientTransform="translate(0)" xlink:href="#radial-gradient-7"></radialGradient><radialGradient id="radial-gradient-13" cx="0.5" cy="0.5" r="0.5" gradientTransform="translate(0)" xlink:href="#radial-gradient-7"></radialGradient><radialGradient id="radial-gradient-14" cx="0.5" cy="0.5" r="0.5" gradientTransform="translate(0)" xlink:href="#radial-gradient-7"></radialGradient><linearGradient id="linear-gradient-23" x1="-7.969" y1="-11.297" x2="-4.754" y2="-7.479" xlink:href="#linear-gradient-5"></linearGradient><linearGradient id="linear-gradient-24" x1="1.365" y1="1.35" x2="0.359" y2="0.148" xlink:href="#linear-gradient"></linearGradient><radialGradient id="radial-gradient-15" cx="0.5" cy="0.5" r="0.5" gradientTransform="matrix(-0.388, 0.922, -0.922, -0.388, -26.804, -14.015)" xlink:href="#radial-gradient-7"></radialGradient><linearGradient id="linear-gradient-25" x1="0.204" y1="-5.681" x2="-0.123" y2="-12.373" xlink:href="#linear-gradient-6"></linearGradient><linearGradient id="linear-gradient-26" x1="0.599" y1="2.438" x2="0.349" y2="-1.782" xlink:href="#linear-gradient-6"></linearGradient><linearGradient id="linear-gradient-27" x1="0.525" y1="0.483" x2="-0.261" y2="-1.286" xlink:href="#linear-gradient-6"></linearGradient><linearGradient id="linear-gradient-28" x1="2.928" y1="13.065" x2="-4.947" y2="-27.689" xlink:href="#linear-gradient-6"></linearGradient><linearGradient id="linear-gradient-29" x1="0.671" y1="0.532" x2="-0.468" y2="-0.628" xlink:href="#linear-gradient-6"></linearGradient><linearGradient id="linear-gradient-30" x1="0.158" y1="-1.107" x2="-0.386" y2="-3.658" xlink:href="#linear-gradient-6"></linearGradient><linearGradient id="linear-gradient-31" x1="-0.047" y1="0.382" x2="1.395" y2="0.715" xlink:href="#linear-gradient-6"></linearGradient><linearGradient id="linear-gradient-32" x1="1.335" y1="-0.593" x2="-0.992" y2="2.12" gradientUnits="objectBoundingBox"><stop offset="0" stop-color="#fff"></stop><stop offset="1"></stop></linearGradient><linearGradient id="linear-gradient-33" x1="0.507" y1="-0.153" x2="0.499" y2="0.991" xlink:href="#linear-gradient-32"></linearGradient><linearGradient id="linear-gradient-34" x1="0.539" y1="-1.357" x2="0.379" y2="7.134" xlink:href="#linear-gradient-32"></linearGradient><linearGradient id="linear-gradient-35" x1="0.626" y1="-2.281" x2="0.116" y2="8.725" xlink:href="#linear-gradient-32"></linearGradient><linearGradient id="linear-gradient-36" x1="0.54" y1="-0.133" x2="0.486" y2="0.948" xlink:href="#linear-gradient-32"></linearGradient><linearGradient id="linear-gradient-37" x1="0.654" y1="-0.238" x2="0.238" y2="2.666" xlink:href="#linear-gradient-32"></linearGradient><linearGradient id="linear-gradient-38" x1="0.654" y1="-0.097" x2="0.222" y2="1.69" xlink:href="#linear-gradient-32"></linearGradient><linearGradient id="linear-gradient-39" x1="0.582" y1="-0.751" x2="0.407" y2="2.544" xlink:href="#linear-gradient-32"></linearGradient><linearGradient id="linear-gradient-40" x1="0.582" y1="-0.797" x2="0.379" y2="2.405" xlink:href="#linear-gradient-32"></linearGradient><linearGradient id="linear-gradient-41" x1="0.632" y1="-0.685" x2="0.291" y2="2.287" xlink:href="#linear-gradient-32"></linearGradient><linearGradient id="linear-gradient-42" x1="0.639" y1="-0.58" x2="0.275" y2="2.015" xlink:href="#linear-gradient-32"></linearGradient><linearGradient id="linear-gradient-43" x1="0.808" y1="-0.6" x2="0.148" y2="1.621" xlink:href="#linear-gradient-32"></linearGradient><linearGradient id="linear-gradient-44" x1="1.016" y1="-0.243" x2="-0.063" y2="1.073" xlink:href="#linear-gradient-32"></linearGradient><linearGradient id="linear-gradient-45" x1="0.932" y1="-0.38" x2="0.249" y2="1.251" xlink:href="#linear-gradient-32"></linearGradient><linearGradient id="linear-gradient-46" x1="0.176" y1="0.445" x2="-2.117" y2="2.238" xlink:href="#linear-gradient-32"></linearGradient></defs><g id="price-icon-1" transform="translate(-1356.608 -726.356)"><g id="&#x421;&#x433;&#x440;&#x443;&#x43F;&#x43F;&#x438;&#x440;&#x43E;&#x432;&#x430;&#x442;&#x44C;_9843" data-name="&#x421;&#x433;&#x440;&#x443;&#x43F;&#x43F;&#x438;&#x440;&#x43E;&#x432;&#x430;&#x442;&#x44C; 9843" transform="translate(1356.608 726.356)"><path id="&#x41A;&#x43E;&#x43D;&#x442;&#x443;&#x440;_10348" data-name="&#x41A;&#x43E;&#x43D;&#x442;&#x443;&#x440; 10348" d="M1522.826,733.522q.317-.113.622-.251a10.821,10.821,0,0,1,1.359-.59c.305-.091.623-.135.93-.219a3.655,3.655,0,0,0,2.035-1.46,2.035,2.035,0,0,1-1.573-1.049c-.848-1.592-1.4-3.276-3.65-2.669-1.261.341-2.283,1.089-2.264,2.52.007.576.2,1.134.242,1.709a3.17,3.17,0,0,1-1.356,2.779A18.319,18.319,0,0,0,1522.826,733.522Z" transform="translate(-1503.186 -727.078)" fill="url(#linear-gradient)"></path><path id="&#x41A;&#x43E;&#x43D;&#x442;&#x443;&#x440;_10349" data-name="&#x41A;&#x43E;&#x43D;&#x442;&#x443;&#x440; 10349" d="M1528.385,735.3c.176-.064.35-.134.522-.211a9.173,9.173,0,0,1,1.141-.5c.256-.076.523-.113.782-.183a3.075,3.075,0,0,0,1.708-1.227,1.708,1.708,0,0,1-1.321-.882c-.712-1.337-1.174-2.752-3.065-2.242a2.177,2.177,0,0,0-1.9,2.116c.007.485.172.953.2,1.436a2.669,2.669,0,0,1-1.14,2.335A15.509,15.509,0,0,0,1528.385,735.3Z" transform="translate(-1508.725 -729.601)" fill="url(#radial-gradient)" style="mix-blend-mode: multiply;isolation: isolate"></path><path id="&#x41A;&#x43E;&#x43D;&#x442;&#x443;&#x440;_10350" data-name="&#x41A;&#x43E;&#x43D;&#x442;&#x443;&#x440; 10350" d="M1518.665,1131.029c.482-1.8-.909-2.67,1.357-3.486.964-.348,2.9-.737,1.885-2.134a9.164,9.164,0,0,0-4.213-2.751c-1.836-.664-3.184-.147-4.974.153-2.892.485-1.339,2.363.209,3.343.293.184.633.367.737.7a2.255,2.255,0,0,1-.405,1.737,3.281,3.281,0,0,0-.583,1.123,1.527,1.527,0,0,0-.014.185,2.42,2.42,0,0,0,1.187,1.912C1515.251,1132.614,1518.188,1132.811,1518.665,1131.029Z" transform="translate(-1495.907 -1083.401)" fill="url(#linear-gradient-2)"></path><path id="&#x41A;&#x43E;&#x43D;&#x442;&#x443;&#x440;_10351" data-name="&#x41A;&#x43E;&#x43D;&#x442;&#x443;&#x440; 10351" d="M1533.408,1127.576c0-.014,0-.03.007-.045.08-.627-.18-1.254-.152-1.886.073-1.682,1.823-1.537,2.358-2.854a2.354,2.354,0,0,0-.162-2.214,2.741,2.741,0,0,0-1.7-.979,5.192,5.192,0,0,0-4.408,1.123c-.569.49-1.527,1.645-1.157,2.457.219.48.837.505,1.134.9a1.391,1.391,0,0,1-.2,1.726,3.278,3.278,0,0,0-.537.845c-.48,1.35,1.409,2.322,2.5,2.4C1532.145,1129.12,1533.232,1128.755,1533.408,1127.576Z" transform="translate(-1511.252 -1080.835)" fill="url(#radial-gradient-2)" style="mix-blend-mode: multiply;isolation: isolate"></path><path id="&#x41A;&#x43E;&#x43D;&#x442;&#x443;&#x440;_10352" data-name="&#x41A;&#x43E;&#x43D;&#x442;&#x443;&#x440; 10352" d="M1688.653,744.264c.562.7.671,1.9,1.356,2.5q-3.128-2.716-6.461-5.185a9.819,9.819,0,0,0-3.821-2c1.313.255,2.934.965,3.973-.014.859-.81.412-2.265,2.41-3.132a3.979,3.979,0,0,1,1.96-.123,3.037,3.037,0,0,1,2.5,2.041,2.9,2.9,0,0,1-1.163,3.212c-.631.481-1.7.783-1.321,1.9A2.843,2.843,0,0,0,1688.653,744.264Z" transform="translate(-1647.956 -735.272)" fill="url(#linear-gradient-3)"></path><path id="&#x41A;&#x43E;&#x43D;&#x442;&#x443;&#x440;_10353" data-name="&#x41A;&#x43E;&#x43D;&#x442;&#x443;&#x440; 10353" d="M1703.585,741.039c-.589.447-1.206.636-1.4,1.407a3.094,3.094,0,0,0,.78,2.615,14.853,14.853,0,0,0-2.859-3.532,5.705,5.705,0,0,0-4.2-1.445,7.493,7.493,0,0,0,2.018.114,1.394,1.394,0,0,0,.925-.332c.554-.583.289-1.655.762-2.347a2.8,2.8,0,0,1,2.285-1.391,2.932,2.932,0,0,1,2.848,1.7A2.9,2.9,0,0,1,1703.585,741.039Z" transform="translate(-1662.546 -735.164)" fill="url(#radial-gradient-3)" style="mix-blend-mode: multiply;isolation: isolate"></path><path id="&#x41A;&#x43E;&#x43D;&#x442;&#x443;&#x440;_10354" data-name="&#x41A;&#x43E;&#x43D;&#x442;&#x443;&#x440; 10354" d="M1818.433,893.019c1.358.1,2.8-.123,3.556,1.309a4.716,4.716,0,0,1,.25,3.067c-.419,2.257-1.962,2.525-3.9,3.318-1.838.752-2.737,2.819-3.212,4.746a28.091,28.091,0,0,0,.875-9.47c-.149-1.91-.542-3.69-.746-5.585.564.777,1.2,2.175,2.161,2.462A4.745,4.745,0,0,0,1818.433,893.019Z" transform="translate(-1770.043 -874.275)" fill="url(#linear-gradient-4)"></path><path id="&#x41A;&#x43E;&#x43D;&#x442;&#x443;&#x440;_10355" data-name="&#x41A;&#x43E;&#x43D;&#x442;&#x443;&#x440; 10355" d="M1811.99,891.553c.94.073,2.052-.391,2.964-.026a2.4,2.4,0,0,1,1.279,2.307,3.839,3.839,0,0,1-1.468,2.991,7.308,7.308,0,0,1-3.049.736,1.551,1.551,0,0,0-.714.239,1.508,1.508,0,0,0-.376.476,19.33,19.33,0,0,0-1.789,4.772,28.073,28.073,0,0,0,.876-9.47c-.062-1.057-.246-2.1-.387-3.147a8.068,8.068,0,0,0-.3-2.472l1.421,2.433a2.754,2.754,0,0,0,.666.853A1.628,1.628,0,0,0,1811.99,891.553Z" transform="translate(-1764.372 -872.069)" fill="url(#radial-gradient-4)" style="mix-blend-mode: multiply;isolation: isolate"></path><path id="&#x41A;&#x43E;&#x43D;&#x442;&#x443;&#x440;_10356" data-name="&#x41A;&#x43E;&#x43D;&#x442;&#x443;&#x440; 10356" d="M1403.716,778.2a20.8,20.8,0,0,0-33.262-16.654,1.944,1.944,0,0,1-.955-.268,9.514,9.514,0,0,1-.977-.875,4.1,4.1,0,0,0-2.66-.945,3.685,3.685,0,0,0-2.281,1.219,4.129,4.129,0,0,0-1.185,2.944,2.2,2.2,0,0,0,.881,1.615c.508.391,1.2.593,1.512,1.156a2.132,2.132,0,0,1,.011,1.584,20.859,20.859,0,0,0-2.27,14.376c-.01,1.175.018,2.529-.775,3.3a4.917,4.917,0,0,1-2.249.815,4.405,4.405,0,0,0-1.548.793,3.553,3.553,0,0,0-1.311,2.045,4.066,4.066,0,0,0,1.239,3.266,2.793,2.793,0,0,0,3.056.429c1.723-.735,2.868-3.765,5.045-2.683l.038.022a20.816,20.816,0,0,0,23.82,7.474c.344-.079.684-.163,1.021-.259.176-.05.349-.1.523-.156,1.029-.325,2.3-.505,2.788.731a13.871,13.871,0,0,0,.536,2,2.156,2.156,0,0,0,.675.69,3.032,3.032,0,0,0,3.721-.339,2.888,2.888,0,0,0,.132-3.753c-.76-.963-2.073-1.68-.938-2.926a18.948,18.948,0,0,0,2.2-3.211,9.83,9.83,0,0,0,.92-1.846,6.569,6.569,0,0,0,.3-1.666A20.717,20.717,0,0,0,1403.716,778.2Z" transform="translate(-1356.608 -754.349)" fill="url(#radial-gradient-5)"></path><path id="&#x41A;&#x43E;&#x43D;&#x442;&#x443;&#x440;_10357" data-name="&#x41A;&#x43E;&#x43D;&#x442;&#x443;&#x440; 10357" d="M1398.81,764.188a17.494,17.494,0,0,0-10.659-3.579,20.525,20.525,0,0,0-6.307,1.1A27.228,27.228,0,0,0,1377,764.4c-.226.134-.451.269-.682.395a1.456,1.456,0,0,1-.768.235c-.686-.046-1-1.3-1.481-1.7a3.675,3.675,0,0,0-2.022-.993,3.094,3.094,0,0,0-1.876.626,5.639,5.639,0,0,0-1.355,1.476c-1.328,1.982-.477,3.47,2.1,3.645a1.444,1.444,0,0,1,1.118,1.031c.228.678-.271,1.361-.7,1.932a15.261,15.261,0,0,0-2.881,11.663c.136.88.285,1.755.374,2.642.155,1.531.558,2.3-.953,3.092-1.2.63-2.515,1.011-3.687,1.7a2.238,2.238,0,0,0-.756.633,2.334,2.334,0,0,0-.321,1.042,2.894,2.894,0,0,0,.241,1.917,2.322,2.322,0,0,0,2.608.751,10.282,10.282,0,0,0,2.538-1.408,3.256,3.256,0,0,1,2.769-.7,8.157,8.157,0,0,1,2.423,2.049A20.2,20.2,0,0,0,1378,797.8a20.838,20.838,0,0,0,17.454,1.67c.342-.078.683-.162,1.021-.258.175-.05.349-.1.522-.157a6.027,6.027,0,0,1,2.788-.125.835.835,0,0,1,.445.183.853.853,0,0,1,.212.484c.082.461.075.933.125,1.4a2.577,2.577,0,0,0,.447,1.312c1.239,1.619,4.215.225,3.543-1.775-.475-1.414-2.312-2.459-1.44-4.1a15.712,15.712,0,0,1,2.257-2.876,3.252,3.252,0,0,0,.921-2.206,11.7,11.7,0,0,1,1.085-2.886c2.5-5.626,2.133-13.057-1.557-18.081-1.8-2.455-3.672-3.719-6.115-5.542Q1399.262,764.508,1398.81,764.188Z" transform="translate(-1362.418 -757.239)" fill="url(#radial-gradient-6)" style="mix-blend-mode: multiply;isolation: isolate"></path><path id="&#x41A;&#x43E;&#x43D;&#x442;&#x443;&#x440;_10358" data-name="&#x41A;&#x43E;&#x43D;&#x442;&#x443;&#x440; 10358" d="M1409.05,986.745a26.949,26.949,0,0,1-1.7-7.8c-.065-.028-.129-.055-.192-.08a20.808,20.808,0,0,0,.392,3.175c-.01,1.175.018,2.529-.775,3.3a1.686,1.686,0,0,1-.24.194c.9.551,2.778,2.011,2.032,4.3a8.577,8.577,0,0,1-.376.952c.81-.776,1.67-1.348,2.817-.778l.038.022q.592.821,1.26,1.579c.016-.038.031-.08.047-.119A18.669,18.669,0,0,1,1409.05,986.745Z" transform="translate(-1401.624 -954.039)" opacity="0.35" fill="url(#linear-gradient-5)" style="mix-blend-mode: soft-light;isolation: isolate"></path><g id="&#x421;&#x433;&#x440;&#x443;&#x43F;&#x43F;&#x438;&#x440;&#x43E;&#x432;&#x430;&#x442;&#x44C;_9839" data-name="&#x421;&#x433;&#x440;&#x443;&#x43F;&#x43F;&#x438;&#x440;&#x43E;&#x432;&#x430;&#x442;&#x44C; 9839" transform="translate(6.103 4.109)"><path id="&#x41A;&#x43E;&#x43D;&#x442;&#x443;&#x440;_10359" data-name="&#x41A;&#x43E;&#x43D;&#x442;&#x443;&#x440; 10359" d="M1507.227,935.7a19.017,19.017,0,0,0,4.043.221c6.055-.416,12.3-2.84,15.517-8.245A18.3,18.3,0,0,0,1529.1,916.4c-.182-1.685-.71-4.1-2.584-4.595-8.578-2.259-17.378.786-23.746,6.692a17.333,17.333,0,0,0-4.117,5.358,9.3,9.3,0,0,0-.589,6.622C1499.164,933.9,1504.076,935.212,1507.227,935.7Z" transform="translate(-1489.931 -897.011)" opacity="0.6" fill="url(#radial-gradient-7)" style="mix-blend-mode: multiply;isolation: isolate"></path><path id="&#x41A;&#x43E;&#x43D;&#x442;&#x443;&#x440;_10360" data-name="&#x41A;&#x43E;&#x43D;&#x442;&#x443;&#x440; 10360" d="M1441.515,768.341a18.992,18.992,0,0,0-4.047-.142,22.4,22.4,0,0,0-11.739,4.853,18.808,18.808,0,0,0-6.8,11.684,10.061,10.061,0,0,0-.066,4.091,4.865,4.865,0,0,0,2.317,3.254,6.555,6.555,0,0,0,1.521.524c8.62,2.09,17.358-1.128,23.609-7.157a17.347,17.347,0,0,0,4.012-5.439,9.307,9.307,0,0,0,.458-6.632C1449.612,769.98,1444.677,768.768,1441.515,768.341Z" transform="translate(-1418.676 -768.148)" opacity="0.19" fill="url(#linear-gradient-6)" style="mix-blend-mode: screen;isolation: isolate"></path></g><path id="&#x41A;&#x43E;&#x43D;&#x442;&#x443;&#x440;_10361" data-name="&#x41A;&#x43E;&#x43D;&#x442;&#x443;&#x440; 10361" d="M1414.852,859.307a21.829,21.829,0,0,0-.063,9.013,9.122,9.122,0,0,0,1.264,3.751c.564.779,1.584,1.935,2.208.575.294-.64-.43-1.8-.618-2.472a27.35,27.35,0,0,1-.824-7,12.669,12.669,0,0,1,1.853-7.208c.531-.767,1.608-1.486,1.959-2.35a.927.927,0,0,0,.01-.869.9.9,0,0,0-.527-.3c-3.312-.885-4.432,3.444-5.017,5.79C1415.008,858.588,1414.927,858.947,1414.852,859.307Z" transform="translate(-1408.671 -839.939)" opacity="0.57" fill="url(#radial-gradient-8)" style="mix-blend-mode: multiply;isolation: isolate"></path><path id="&#x41A;&#x43E;&#x43D;&#x442;&#x443;&#x440;_10362" data-name="&#x41A;&#x43E;&#x43D;&#x442;&#x443;&#x440; 10362" d="M1788.728,883.029a7.256,7.256,0,0,1,.65,2.913c-.067,1.587-1.036,2.973-1.574,4.467-.367,1.022-.537,2.111-.965,3.109-.242.565-.694,1.167-1.307,1.12-.651-.05-1.01-.851-.882-1.492a4.97,4.97,0,0,1,.941-1.7c1.333-1.975,1.339-3.993,1.106-6.256s-1.382-4.12-2.1-6.257c-.344-1.027-.218-3.2,1.461-2.786a2.308,2.308,0,0,1,1.5,1.776c.2.789.161,1.618.295,2.421A14.056,14.056,0,0,0,1788.728,883.029Z" transform="translate(-1742.377 -861.37)" opacity="0.57" fill="url(#radial-gradient-9)" style="mix-blend-mode: multiply;isolation: isolate"></path><path id="&#x41A;&#x43E;&#x43D;&#x442;&#x443;&#x440;_10363" data-name="&#x41A;&#x43E;&#x43D;&#x442;&#x443;&#x440; 10363" d="M1478.386,1027.967c.469-.6.888-1.2,1.358-1.79.389-.489.94-1.154.838-1.828a.544.544,0,0,0-.482-.482.823.823,0,0,0-.505.258l-.891.767a7.33,7.33,0,0,0-1.611,1.722,6.746,6.746,0,0,0-.629,1.628,9.007,9.007,0,0,0-.452,2.979c.122,1.962,1.8,3.6,3.5,4.405a9.519,9.519,0,0,0,5.534.641,6.786,6.786,0,0,0,2.612-.91,5.573,5.573,0,0,0,2.053-1.786,3.637,3.637,0,0,0,.41-2.43,7.256,7.256,0,0,0-.78-1.961,4.635,4.635,0,0,0-1.521-1.964,3.339,3.339,0,0,0-1.5-.422c-1.039-.073-1.6.517-2,1.448-.2.47-.34.969-.57,1.427a3.233,3.233,0,0,1-2.041,1.7,3.051,3.051,0,0,1-3.577-2.448,1.178,1.178,0,0,1,.018-.555A1.4,1.4,0,0,1,1478.386,1027.967Z" transform="translate(-1464.262 -994.614)" opacity="0.41" fill="url(#radial-gradient-10)" style="mix-blend-mode: multiply;isolation: isolate"></path><path id="&#x41A;&#x43E;&#x43D;&#x442;&#x443;&#x440;_10364" data-name="&#x41A;&#x43E;&#x43D;&#x442;&#x443;&#x440; 10364" d="M1675.57,1008.544a2.392,2.392,0,0,0-1.757.847c-2.052,2.477,1.1,4.632,3.327,4.932a7.217,7.217,0,0,0,3.87-.627c4.7-2.1,6.355-8.289,1.428-11.182a3.783,3.783,0,0,0-3.254-.55,9.657,9.657,0,0,0,1.458,1.018,5.063,5.063,0,0,1,1.36.926,2.582,2.582,0,0,1,.523,2.126,5.544,5.544,0,0,1-.889,2.065,3.927,3.927,0,0,1-1.1,1.217,1.976,1.976,0,0,1-1.309.22c-1.2-.04-2.165-.84-3.339-.977A2.367,2.367,0,0,0,1675.57,1008.544Z" transform="translate(-1642.024 -974.703)" opacity="0.6" fill="url(#radial-gradient-11)" style="mix-blend-mode: multiply;isolation: isolate"></path><path id="&#x41A;&#x43E;&#x43D;&#x442;&#x443;&#x440;_10365" data-name="&#x41A;&#x43E;&#x43D;&#x442;&#x443;&#x440; 10365" d="M1505.945,1110.18c-4.935.415-4.827,2.172-4.237,3.195a20.832,20.832,0,0,0,16.695,3.042,9.068,9.068,0,0,0,2.194-1.7C1523.051,1111.965,1513.01,1109.585,1505.945,1110.18Z" transform="translate(-1487.186 -1072.358)" fill="#f74d6e" opacity="0.35" style="mix-blend-mode: screen;isolation: isolate"></path><path id="&#x41A;&#x43E;&#x43D;&#x442;&#x443;&#x440;_10366" data-name="&#x41A;&#x43E;&#x43D;&#x442;&#x443;&#x440; 10366" d="M1442.242,891.641a3.936,3.936,0,0,0-.689,1.123,8.4,8.4,0,0,0-.407,1.244c-.1.426-.193.855-.259,1.29s-.133.87-.177,1.31c-.1.877-.163,1.762-.212,2.649-.02.444-.042.888-.052,1.334-.007.222-.01.446-.01.669a4,4,0,0,0,.038.669,2.75,2.75,0,0,1-.209-.65c-.051-.222-.086-.446-.122-.67-.062-.449-.107-.9-.128-1.353a16.9,16.9,0,0,1,.081-2.717,12,12,0,0,1,.591-2.671,6.174,6.174,0,0,1,.6-1.245A3.083,3.083,0,0,1,1442.242,891.641Z" transform="translate(-1431.795 -875.389)" opacity="0.7" fill="url(#linear-gradient-7)" style="mix-blend-mode: soft-light;isolation: isolate"></path><path id="&#x41A;&#x43E;&#x43D;&#x442;&#x443;&#x440;_10367" data-name="&#x41A;&#x43E;&#x43D;&#x442;&#x443;&#x440; 10367" d="M1446.234,1016.074a3.982,3.982,0,0,1,.419.789,7.547,7.547,0,0,1,.281.809c.08.272.144.546.2.824s.1.559.131.872a2.131,2.131,0,0,1-.587-.7,3.966,3.966,0,0,1-.336-.823,4.482,4.482,0,0,1-.157-.866A3.052,3.052,0,0,1,1446.234,1016.074Z" transform="translate(-1437.365 -987.588)" opacity="0.7" fill="url(#linear-gradient-8)" style="mix-blend-mode: soft-light;isolation: isolate"></path><path id="&#x41A;&#x43E;&#x43D;&#x442;&#x443;&#x440;_10368" data-name="&#x41A;&#x43E;&#x43D;&#x442;&#x443;&#x440; 10368" d="M1794.6,934.165a7.171,7.171,0,0,1,1.024,2.322c.048.207.1.416.137.626l.094.635c.019.212.033.426.047.64l.012.641a9.907,9.907,0,0,1-.377,2.528,8.022,8.022,0,0,1-1.047,2.308,20.713,20.713,0,0,0,.577-2.416,16.692,16.692,0,0,0,.229-2.433l0-.61c-.006-.2-.021-.406-.025-.609l-.047-.609c-.027-.2-.052-.4-.073-.607A15.556,15.556,0,0,0,1794.6,934.165Z" transform="translate(-1751.437 -913.732)" fill="url(#linear-gradient-9)" style="mix-blend-mode: soft-light;isolation: isolate"></path><path id="&#x41A;&#x43E;&#x43D;&#x442;&#x443;&#x440;_10369" data-name="&#x41A;&#x43E;&#x43D;&#x442;&#x443;&#x440; 10369" d="M1572.669,848.527c-.249.806-.388,1.69-.684,2.391a2.677,2.677,0,0,1-2,1.77,3.909,3.909,0,0,1,.587.4c.263.161.49.371.749.542a4.777,4.777,0,0,0,1.5.565,9.342,9.342,0,0,0,4.5.342,9.5,9.5,0,0,0,1.69-.665,4.588,4.588,0,0,0,1.149-.659c.084-.076.671-.856.58-.889a3.872,3.872,0,0,1-.782-.346c-1.716-1.086-.84-3.642-2.163-5.035-.5-.529-1.466-.521-2.145-.582a3.472,3.472,0,0,0-.941,0A2.656,2.656,0,0,0,1572.669,848.527Z" transform="translate(-1549.009 -834.532)" opacity="0.19" fill="url(#linear-gradient-10)" style="mix-blend-mode: screen;isolation: isolate"></path><g id="&#x421;&#x433;&#x440;&#x443;&#x43F;&#x43F;&#x438;&#x440;&#x43E;&#x432;&#x430;&#x442;&#x44C;_9840" data-name="&#x421;&#x433;&#x440;&#x443;&#x43F;&#x43F;&#x438;&#x440;&#x43E;&#x432;&#x430;&#x442;&#x44C; 9840" transform="translate(13.893 28.968)"><path id="&#x41A;&#x43E;&#x43D;&#x442;&#x443;&#x440;_10370" data-name="&#x41A;&#x43E;&#x43D;&#x442;&#x443;&#x440; 10370" d="M1499.943,1020.977a1.387,1.387,0,0,1,.413.373,1.09,1.09,0,0,1,.181.547,2.369,2.369,0,0,1-.266,1.11,13.617,13.617,0,0,1-1.193,1.87,5.908,5.908,0,0,0-.537.886.986.986,0,0,0-.061.2,1.64,1.64,0,0,0-.015.228,1.594,1.594,0,0,0,.075.457,2.234,2.234,0,0,0,1.278,1.364,2.653,2.653,0,0,0,1.917.088,2.269,2.269,0,0,0,.827-.492,2.827,2.827,0,0,0,.56-.823,8.636,8.636,0,0,1,1.012-1.98,2.086,2.086,0,0,1,.93-.668,1.37,1.37,0,0,1,1.1.054,1.357,1.357,0,0,0-1.034.1,1.907,1.907,0,0,0-.754.691,10.094,10.094,0,0,0-.811,1.991,3.049,3.049,0,0,1-.617,1.01,2.8,2.8,0,0,1-1.014.663,3.213,3.213,0,0,1-2.362-.074,2.8,2.8,0,0,1-1.591-1.768,2.193,2.193,0,0,1-.076-.625,2.336,2.336,0,0,1,.035-.317,1.587,1.587,0,0,1,.109-.322,5.178,5.178,0,0,1,.646-.954,17.991,17.991,0,0,0,1.312-1.725,2.249,2.249,0,0,0,.362-.967.966.966,0,0,0-.092-.5A1.336,1.336,0,0,0,1499.943,1020.977Z" transform="translate(-1497.903 -1020.977)" fill="url(#linear-gradient-11)" style="mix-blend-mode: soft-light;isolation: isolate"></path><path id="&#x41A;&#x43E;&#x43D;&#x442;&#x443;&#x440;_10371" data-name="&#x41A;&#x43E;&#x43D;&#x442;&#x443;&#x440; 10371" d="M1504.17,1065.291a1.907,1.907,0,0,0,2.214-.276c.574-.708-.253-1.842-.895-2.256a1.751,1.751,0,0,0-2.6.359,1.546,1.546,0,0,0,.547,1.756A2.653,2.653,0,0,0,1504.17,1065.291Z" transform="translate(-1502.298 -1058.285)" opacity="0.19" fill="url(#linear-gradient-12)" style="mix-blend-mode: screen;isolation: isolate"></path></g><path id="&#x41A;&#x43E;&#x43D;&#x442;&#x443;&#x440;_10372" data-name="&#x41A;&#x43E;&#x43D;&#x442;&#x443;&#x440; 10372" d="M1419.936,779.5l-.08.031a3.72,3.72,0,0,0-1.609,1.475c-.608.918-1.252,3,.428,3.149a3.421,3.421,0,0,0,3.194-2.371C1422.429,780.323,1421.666,778.847,1419.936,779.5Z" transform="translate(-1411.604 -774.129)" opacity="0.39" fill="url(#linear-gradient-13)" style="mix-blend-mode: screen;isolation: isolate"></path><path id="&#x41A;&#x43E;&#x43D;&#x442;&#x443;&#x440;_10373" data-name="&#x41A;&#x43E;&#x43D;&#x442;&#x443;&#x440; 10373" d="M1533.231,727.291c-.757.712-.781,1.83.448,1.974a3.546,3.546,0,0,0,2.673-.747,1.28,1.28,0,0,0,.032-1.922,1.355,1.355,0,0,0-.859-.24,3.691,3.691,0,0,0-2.082.76A2.069,2.069,0,0,0,1533.231,727.291Z" transform="translate(-1515.388 -726.356)" opacity="0.19" fill="url(#linear-gradient-14)" style="mix-blend-mode: screen;isolation: isolate"></path><path id="&#x41A;&#x43E;&#x43D;&#x442;&#x443;&#x440;_10374" data-name="&#x41A;&#x43E;&#x43D;&#x442;&#x443;&#x440; 10374" d="M1738.833,737.823a2.387,2.387,0,0,0-2.194.87,1.491,1.491,0,0,0,.083,1.45,3.576,3.576,0,0,0,1.072,1.062c1.112.793,3.239,1.158,3.572-.429A2.746,2.746,0,0,0,1738.833,737.823Z" transform="translate(-1699.135 -736.694)" opacity="0.57" fill="url(#linear-gradient-15)" style="mix-blend-mode: screen;isolation: isolate"></path><path id="&#x41A;&#x43E;&#x43D;&#x442;&#x443;&#x440;_10375" data-name="&#x41A;&#x43E;&#x43D;&#x442;&#x443;&#x440; 10375" d="M1358.239,1064.541c-1.142.688-.855,2.667-.25,3.773a3.117,3.117,0,0,0,1.148,1.284,2.188,2.188,0,0,0,2.785-.551c.578-.971-.065-2.787-.688-3.63a2.6,2.6,0,0,0-2.09-1.119A1.828,1.828,0,0,0,1358.239,1064.541Z" transform="translate(-1357.375 -1031.069)" opacity="0.42" fill="url(#linear-gradient-16)" style="mix-blend-mode: screen;isolation: isolate"></path><path id="&#x41A;&#x43E;&#x43D;&#x442;&#x443;&#x440;_10376" data-name="&#x41A;&#x43E;&#x43D;&#x442;&#x443;&#x440; 10376" d="M1502.064,1004.253a2.886,2.886,0,0,0,.973.974,2.374,2.374,0,0,0,3.057-.055c1.075-1.03.528-2.962,2.01-3.711.641-.325,1.571-.269,2.053-.873a1.538,1.538,0,0,0,.283-.768c.222-1.664-1.134-3.135-2.539-3.8-1.325-.628-3.664-.623-4.157,1.166-.149.54.158,1.088.237,1.642.226,1.579-1.522,2.567-2.034,3.9A1.735,1.735,0,0,0,1502.064,1004.253Z" transform="translate(-1487.546 -969.163)" opacity="0.39" fill="url(#linear-gradient-17)" style="mix-blend-mode: screen;isolation: isolate"></path><path id="&#x41A;&#x43E;&#x43D;&#x442;&#x443;&#x440;_10377" data-name="&#x41A;&#x43E;&#x43D;&#x442;&#x443;&#x440; 10377" d="M1657.393,979.584a12.066,12.066,0,0,1,1.669,1.325,3.6,3.6,0,0,1,.294,3.956,2.608,2.608,0,0,1-1.326,1.284c-1.473.543-3.017-.9-4.573-.7-1.356.174-2.491,1.568-3.824,1.26a2.15,2.15,0,0,1-1.485-1.973,5.334,5.334,0,0,1,.611-2.543,13.458,13.458,0,0,1,2.134-3.46c.827-.934,2.866-2.783,4.279-2.356.593.179.5.778.694,1.271A4.929,4.929,0,0,0,1657.393,979.584Z" transform="translate(-1619.473 -951.739)" opacity="0.39" fill="url(#linear-gradient-18)" style="mix-blend-mode: screen;isolation: isolate"></path><path id="&#x41A;&#x43E;&#x43D;&#x442;&#x443;&#x440;_10378" data-name="&#x41A;&#x43E;&#x43D;&#x442;&#x443;&#x440; 10378" d="M1417.131,798.569a21.46,21.46,0,0,0,8.18,7.554,20.07,20.07,0,0,0,8.454,1.856c-1.682-.013-4.26-1.357-4.409-3.172a5.584,5.584,0,0,1,1.306-3.79,16.6,16.6,0,0,1,3.012-2.771c.992-.771,1.861-1.193,2.07-2.519.274-1.741.252-3.518.542-5.256a7.58,7.58,0,0,1,2.3-4.637,8.564,8.564,0,0,1,4.307-1.629c2.656-.405,6.215-.282,6.981-3.529a12.249,12.249,0,0,0-.209-3.829c-.043-.544-.192-1.095.36-1.326a1.6,1.6,0,0,1,1.416.456c.5.463.816,1.1,1.311,1.576a19.184,19.184,0,0,0-12.9-9.921,9.012,9.012,0,0,1,6.41,5.151,7.255,7.255,0,0,1-1.543,7.89,10.6,10.6,0,0,1-4.161,2.164c-3.142.984-6.191,2.285-7.22,5.776-.693,2.35-.064,4.683-2.313,6.254a14.04,14.04,0,0,0-2.337,1.551,9.591,9.591,0,0,0-1.244,2.091c-.7,1.266-1.614,2.231-3.186,1.868-1.269-.294-2.334-1.627-3.169-2.563a17.6,17.6,0,0,0-4.766-4.273c-1.725-.929-2.626-3.433-2.593-5.278a17.043,17.043,0,0,0,2.212,8.349C1416.306,797.284,1416.705,797.936,1417.131,798.569Z" transform="translate(-1408.111 -763.574)" opacity="0.19" fill="url(#linear-gradient-19)" style="mix-blend-mode: screen;isolation: isolate"></path><path id="&#x41A;&#x43E;&#x43D;&#x442;&#x443;&#x440;_10379" data-name="&#x41A;&#x43E;&#x43D;&#x442;&#x443;&#x440; 10379" d="M1853.035,924.16a4.583,4.583,0,0,0-.243,1.423,10.694,10.694,0,0,0,.09,1.813c.205,1.5,1.375,1.511,2.212.412a4.475,4.475,0,0,0,.476-3.7A1.305,1.305,0,0,0,1853.035,924.16Z" transform="translate(-1803.999 -903.787)" opacity="0.19" fill="url(#linear-gradient-20)" style="mix-blend-mode: screen;isolation: isolate"></path><g id="&#x421;&#x433;&#x440;&#x443;&#x43F;&#x43F;&#x438;&#x440;&#x43E;&#x432;&#x430;&#x442;&#x44C;_9841" data-name="&#x421;&#x433;&#x440;&#x443;&#x43F;&#x43F;&#x438;&#x440;&#x43E;&#x432;&#x430;&#x442;&#x44C; 9841" transform="translate(15.596 11.156)"><path id="&#x41A;&#x43E;&#x43D;&#x442;&#x443;&#x440;_10380" data-name="&#x41A;&#x43E;&#x43D;&#x442;&#x443;&#x440; 10380" d="M1581.384,846.481a1.642,1.642,0,0,1-.549-.2,1.837,1.837,0,0,1-.436-.407,3.56,3.56,0,0,1-.522-1.066c-.063-.187-.111-.376-.162-.564-.023-.091-.048-.192-.066-.3a2.857,2.857,0,0,1-.035-.307c-.028-.4.013-.79-.031-1.138a1.448,1.448,0,0,0-.133-.484,1.867,1.867,0,0,0-.256-.433,2.39,2.39,0,0,0-.8-.643,4.3,4.3,0,0,0-2.079-.458,3.443,3.443,0,0,0-1.043.169,2.514,2.514,0,0,0-.9.482,2.089,2.089,0,0,0-.562.838,8.065,8.065,0,0,0-.3,1.069c-.086.373-.163.755-.275,1.132a5.287,5.287,0,0,1-.45,1.1,3.418,3.418,0,0,1-.743.928,2.122,2.122,0,0,1-1.052.5,2.2,2.2,0,0,0,.932-.624,3.361,3.361,0,0,0,.591-.941,8.8,8.8,0,0,0,.521-2.192,6.7,6.7,0,0,1,.266-1.165,2.659,2.659,0,0,1,.676-1.083,2.971,2.971,0,0,1,1.1-.622,4.025,4.025,0,0,1,1.221-.214,4.918,4.918,0,0,1,1.217.129,4.316,4.316,0,0,1,1.154.434,2.954,2.954,0,0,1,.953.829,2.3,2.3,0,0,1,.305.569,1.948,1.948,0,0,1,.131.633c.022.42-.037.8-.044,1.168a2.59,2.59,0,0,0,.044.54c.034.189.066.375.107.559a3.512,3.512,0,0,0,.373,1.049,1.719,1.719,0,0,0,.351.429A1.59,1.59,0,0,0,1581.384,846.481Z" transform="translate(-1565.503 -839.859)" fill="url(#linear-gradient-21)" style="mix-blend-mode: soft-light;isolation: isolate"></path><path id="&#x41A;&#x43E;&#x43D;&#x442;&#x443;&#x440;_10381" data-name="&#x41A;&#x43E;&#x43D;&#x442;&#x443;&#x440; 10381" d="M1606.315,840.637a3.6,3.6,0,0,0-2.051-.8,3.1,3.1,0,0,0-2.4.708c-.53.518-1.154,1.472-.508,2.062a3,3,0,0,0,.752.454c.213.1.426.2.648.286,1.448.532,4.836-.052,3.821-2.334A1.245,1.245,0,0,0,1606.315,840.637Z" transform="translate(-1592.643 -839.822)" opacity="0.19" fill="url(#linear-gradient-22)" style="mix-blend-mode: screen;isolation: isolate"></path><ellipse id="&#x42D;&#x43B;&#x43B;&#x438;&#x43F;&#x441;_589" data-name="&#x42D;&#x43B;&#x43B;&#x438;&#x43F;&#x441; 589" cx="3.706" cy="3.707" rx="3.706" ry="3.707" transform="translate(7.139 2.193)" opacity="0.42" fill="url(#radial-gradient-12)" style="mix-blend-mode: multiply;isolation: isolate"></ellipse><path id="&#x41A;&#x43E;&#x43D;&#x442;&#x443;&#x440;_10382" data-name="&#x41A;&#x43E;&#x43D;&#x442;&#x443;&#x440; 10382" d="M1520.442,1028.8a2.608,2.608,0,1,1-2.608-2.609A2.608,2.608,0,0,1,1520.442,1028.8Z" transform="translate(-1515.225 -1007.866)" opacity="0.42" fill="url(#radial-gradient-13)" style="mix-blend-mode: multiply;isolation: isolate"></path><path id="&#x41A;&#x43E;&#x43D;&#x442;&#x443;&#x440;_10383" data-name="&#x41A;&#x43E;&#x43D;&#x442;&#x443;&#x440; 10383" d="M1690.967,1004.8a3.4,3.4,0,1,1-3.4-3.4A3.4,3.4,0,0,1,1690.967,1004.8Z" transform="translate(-1667.559 -985.518)" opacity="0.42" fill="url(#radial-gradient-14)" style="mix-blend-mode: multiply;isolation: isolate"></path></g><g id="&#x421;&#x433;&#x440;&#x443;&#x43F;&#x43F;&#x438;&#x440;&#x43E;&#x432;&#x430;&#x442;&#x44C;_9842" data-name="&#x421;&#x433;&#x440;&#x443;&#x43F;&#x43F;&#x438;&#x440;&#x43E;&#x432;&#x430;&#x442;&#x44C; 9842" transform="translate(32.555 24.918)"><path id="&#x41A;&#x43E;&#x43D;&#x442;&#x443;&#x440;_10384" data-name="&#x41A;&#x43E;&#x43D;&#x442;&#x443;&#x440; 10384" d="M1687.7,989.45a1.62,1.62,0,0,1,.4-.426,1.873,1.873,0,0,1,.545-.244,3.56,3.56,0,0,1,1.187-.069c.2.015.389.044.582.071.091.013.2.029.3.054a2.929,2.929,0,0,1,.3.086c.383.132.722.318,1.06.412a1.443,1.443,0,0,0,.5.066,1.958,1.958,0,0,0,.5-.068,2.394,2.394,0,0,0,.9-.491,4.3,4.3,0,0,0,1.227-1.737,3.445,3.445,0,0,0,.25-1.028,2.526,2.526,0,0,0-.094-1.019,2.1,2.1,0,0,0-.555-.842,8.181,8.181,0,0,0-.869-.692c-.31-.224-.633-.443-.937-.691a5.319,5.319,0,0,1-.843-.842,3.466,3.466,0,0,1-.567-1.046,2.116,2.116,0,0,1-.053-1.163,2.2,2.2,0,0,0,.212,1.1,3.365,3.365,0,0,0,.637.91,8.763,8.763,0,0,0,1.819,1.331,6.654,6.654,0,0,1,.97.7,2.643,2.643,0,0,1,.737,1.043,2.981,2.981,0,0,1,.144,1.259,4.016,4.016,0,0,1-.276,1.209,5.027,5.027,0,0,1-.592,1.073,4.33,4.33,0,0,1-.85.895,2.928,2.928,0,0,1-1.132.557,2.33,2.33,0,0,1-.642.061,1.926,1.926,0,0,1-.635-.125c-.4-.143-.726-.347-1.06-.494a2.46,2.46,0,0,0-.514-.168c-.188-.044-.373-.085-.557-.12a3.56,3.56,0,0,0-1.112-.063,1.761,1.761,0,0,0-.531.158A1.577,1.577,0,0,0,1687.7,989.45Z" transform="translate(-1687.705 -979.78)" fill="url(#linear-gradient-23)" style="mix-blend-mode: soft-light;isolation: isolate"></path></g><path id="&#x41A;&#x43E;&#x43D;&#x442;&#x443;&#x440;_10385" data-name="&#x41A;&#x43E;&#x43D;&#x442;&#x443;&#x440; 10385" d="M1723.568,1114.162a4.707,4.707,0,0,1,.313-.474,5.88,5.88,0,0,0,.745-1.09q-.582.48-1.16.96a2.326,2.326,0,0,0-.888,1.121,1.553,1.553,0,0,0,.212,1.142c.407.7,1.154,1.051,1.6,1.7a1.976,1.976,0,0,1-.046,2.124,2.528,2.528,0,0,1-2.4,1.1,2.222,2.222,0,0,1-2-1.955c-.07-.564-.125-1.429-.775-1.664-.553-.2-1.15.323-1.7.345a2.149,2.149,0,0,1,1.543.464c.855.691.555,1.612,1.046,2.459a2.157,2.157,0,0,0,.675.69,3.032,3.032,0,0,0,3.721-.339,2.888,2.888,0,0,0,.133-3.752c-.394-.5-1.027-.936-1.248-1.55A1.6,1.6,0,0,1,1723.568,1114.162Z" transform="translate(-1681.98 -1074.621)" fill="url(#linear-gradient-24)"></path><path id="&#x41A;&#x43E;&#x43D;&#x442;&#x443;&#x440;_10386" data-name="&#x41A;&#x43E;&#x43D;&#x442;&#x443;&#x440; 10386" d="M1669.72,1001.253a3.192,3.192,0,1,1,4.181-1.7A3.19,3.19,0,0,1,1669.72,1001.253Z" transform="translate(-1637.172 -968.692)" opacity="0.42" fill="url(#radial-gradient-15)" style="mix-blend-mode: multiply;isolation: isolate"></path><path id="&#x41A;&#x43E;&#x43D;&#x442;&#x443;&#x440;_10387" data-name="&#x41A;&#x43E;&#x43D;&#x442;&#x443;&#x440; 10387" d="M1582.809,1145.971a19.034,19.034,0,0,1-7.168,1.363c-1.758,0-3.5-.332-5.25-.358a1.905,1.905,0,0,0,.832.238,27.014,27.014,0,0,0,4.418.536c.273,0,.547-.006.82-.016a23.77,23.77,0,0,0,8.916-2.22,5.767,5.767,0,0,0,1.984-1.334c-.736.309-1.444.642-2.191.925A24.633,24.633,0,0,0,1582.809,1145.971Z" transform="translate(-1549.371 -1103.098)" opacity="0.39" fill="url(#linear-gradient-25)" style="mix-blend-mode: screen;isolation: isolate"></path><path id="&#x41A;&#x43E;&#x43D;&#x442;&#x443;&#x440;_10388" data-name="&#x41A;&#x43E;&#x43D;&#x442;&#x443;&#x440; 10388" d="M1493.665,760.491c.441.17.879.347,1.3.55a17.022,17.022,0,0,0-5.639-2.743,20.765,20.765,0,0,0-16.347,1.829c-.995.568-1.819,1.3-2.742,1.938a8,8,0,0,0-.768.535,4.69,4.69,0,0,0-.465.489q-.526.61-1.049,1.22a15.411,15.411,0,0,1,2.95-2.316c.971-.592,1.861-1.3,2.88-1.834a20.294,20.294,0,0,1,6.763-2.16,20.556,20.556,0,0,1,8.263.58,39.343,39.343,0,0,1,4.352,1.723Z" transform="translate(-1457.01 -754.349)" opacity="0.39" fill="url(#linear-gradient-26)" style="mix-blend-mode: screen;isolation: isolate"></path><path id="&#x41A;&#x43E;&#x43D;&#x442;&#x443;&#x440;_10389" data-name="&#x41A;&#x43E;&#x43D;&#x442;&#x443;&#x440; 10389" d="M1753.837,804.328a20.382,20.382,0,0,1,3.038,6.025,37.931,37.931,0,0,1,1.163,5.219,18.7,18.7,0,0,0-3.755-11.338,20.921,20.921,0,0,0-2.445-2.823q-.662-.637-1.378-1.216a8.041,8.041,0,0,0-.675-.453A28.55,28.55,0,0,1,1753.837,804.328Z" transform="translate(-1711.126 -792.526)" opacity="0.39" fill="url(#linear-gradient-27)" style="mix-blend-mode: screen;isolation: isolate"></path><path id="&#x41A;&#x43E;&#x43D;&#x442;&#x443;&#x440;_10390" data-name="&#x41A;&#x43E;&#x43D;&#x442;&#x443;&#x440; 10390" d="M1741.982,793.242c.012.018.026.036.041.055a3.015,3.015,0,0,0,.726.584C1742.5,793.661,1742.243,793.446,1741.982,793.242Z" transform="translate(-1704.09 -786.665)" opacity="0.39" fill="url(#linear-gradient-28)" style="mix-blend-mode: screen;isolation: isolate"></path><path id="&#x41A;&#x43E;&#x43D;&#x442;&#x443;&#x440;_10391" data-name="&#x41A;&#x43E;&#x43D;&#x442;&#x443;&#x440; 10391" d="M1412.662,842.384q0-.225,0-.45a20.282,20.282,0,0,1,3.017-10.232c.641-1.038,1.25-2.091,1.91-3.118a8.377,8.377,0,0,0-1.627,1.933,20.781,20.781,0,0,0-3.15,16.705,13.133,13.133,0,0,0,1.546,3.992,12.431,12.431,0,0,1-1.1-3.932A24.6,24.6,0,0,1,1412.662,842.384Z" transform="translate(-1406.775 -818.532)" opacity="0.39" fill="url(#linear-gradient-29)" style="mix-blend-mode: screen;isolation: isolate"></path><path id="&#x41A;&#x43E;&#x43D;&#x442;&#x443;&#x440;_10392" data-name="&#x41A;&#x43E;&#x43D;&#x442;&#x443;&#x440; 10392" d="M1441.232,1067.049a23.939,23.939,0,0,1-3.041-2.348c-.91-.861-1.742-1.825-2.568-2.759a13.768,13.768,0,0,1-1.058-1.647,10.937,10.937,0,0,1-1.07-1.566,18.134,18.134,0,0,0,4.405,6.264,20.971,20.971,0,0,0,2.18,1.8c.661.475,1.352.907,2.043,1.326a9.637,9.637,0,0,0,.959.623,9.889,9.889,0,0,0,1.034.386l1.112.367q-.415-.164-.812-.368A29.975,29.975,0,0,1,1441.232,1067.049Z" transform="translate(-1425.936 -1026.049)" opacity="0.39" fill="url(#linear-gradient-30)" style="mix-blend-mode: screen;isolation: isolate"></path><path id="&#x41A;&#x43E;&#x43D;&#x442;&#x443;&#x440;_10393" data-name="&#x41A;&#x43E;&#x43D;&#x442;&#x443;&#x440; 10393" d="M1727.163,1027.731c3.471-.967,1.7-7.074-.854-4.807a4.757,4.757,0,0,0-1.275,3.645,1.537,1.537,0,0,0,.13.577,1.623,1.623,0,0,0,1.514.648A1.725,1.725,0,0,0,1727.163,1027.731Z" transform="translate(-1688.798 -993.313)" opacity="0.19" fill="url(#linear-gradient-31)" style="mix-blend-mode: screen;isolation: isolate"></path></g><path id="name_10394" data-name="name 10394" d="M1804.542,880.335a27.4,27.4,0,0,1,1.662,7.478c0,3.03-.539,5.034-.977,4.887s.39-4.79-.538-9.091S1804,878.478,1804.542,880.335Z" transform="translate(-403.461 -137.998)" opacity="0.46" fill="url(#linear-gradient-32)" style="mix-blend-mode: screen;isolation: isolate"></path><path id="name_10395" data-name="name 10395" d="M1500.275,767.134s-8.469.056-12.731,4.594,3.149,2.482,7.608,1.6,10.105-.6,13.869,1.167,5.2,1.495,5.424-.277S1509.02,766.968,1500.275,767.134Z" transform="translate(-116.911 -36.765)" opacity="0.7" fill="url(#linear-gradient-33)" style="mix-blend-mode: screen;isolation: isolate"></path><path id="name_10396" data-name="name 10396" d="M1584.656,771.084s-4.815-.11-6.033,1.107,2.269.664,6.531.886S1588.863,771.527,1584.656,771.084Z" transform="translate(-199.965 -40.328)" opacity="0.7" fill="url(#linear-gradient-34)" style="mix-blend-mode: screen;isolation: isolate"></path><path id="name_10397" data-name="name 10397" d="M1688.643,786.217c-.166.014-1.218.221.222,1.052s2.048.443,2.269.055S1689.971,786.106,1688.643,786.217Z" transform="translate(-298.914 -53.966)" opacity="0.7" fill="url(#linear-gradient-35)" style="mix-blend-mode: screen;isolation: isolate"></path><path id="name_10398" data-name="name 10398" d="M1602.337,846.546s-2.106-.23-2.66,1.541,1.329-1.218,3.267-.5,1.748,2.582,2.175,2.011S1605.716,846.776,1602.337,846.546Z" transform="translate(-219.082 -108.363)" opacity="0.7" fill="url(#linear-gradient-36)" style="mix-blend-mode: screen;isolation: isolate"></path><path id="name_10399" data-name="name 10399" d="M1540.245,731.1s-2.159.332-2.159,1.384,1.052-.664,2.436-.554a2.158,2.158,0,0,1,1.826,1.052S1541.8,730.991,1540.245,731.1Z" transform="translate(-163.635 -4.275)" opacity="0.7" fill="url(#linear-gradient-37)" style="mix-blend-mode: screen;isolation: isolate"></path><path id="name_10400" data-name="name 10400" d="M1746.784,739.3a2.627,2.627,0,0,0-2.328.192c-.93.739,1.2.192,2.162,1.177s1.095,1.752,1.532,1.423S1748.234,739.979,1746.784,739.3Z" transform="translate(-349.507 -11.491)" opacity="0.7" fill="url(#linear-gradient-38)" style="mix-blend-mode: screen;isolation: isolate"></path><path id="name_10401" data-name="name 10401" d="M1432.617,779.661a2.379,2.379,0,0,0-2.775.858c-1.032,1.528.666-.353,2.27.152S1434.5,780.441,1432.617,779.661Z" transform="translate(-65.75 -47.931)" opacity="0.7" fill="url(#linear-gradient-39)" style="mix-blend-mode: screen;isolation: isolate"></path><path id="name_10402" data-name="name 10402" d="M1546.629,784.836s-1.743.5-1.33.917,1.376.138,1.972-.092S1548.234,784.607,1546.629,784.836Z" transform="translate(-170.081 -52.694)" opacity="0.7" fill="url(#linear-gradient-40)" style="mix-blend-mode: screen;isolation: isolate"></path><path id="name_10403" data-name="name 10403" d="M1508.863,1055.25s-1.808.587-1.71,1.907,1.025.978,1.368.147,1.026-1.222,1.613-.929S1510.867,1055.055,1508.863,1055.25Z" transform="translate(-135.739 -296.54)" opacity="0.7" fill="url(#linear-gradient-41)" style="mix-blend-mode: screen;isolation: isolate"></path><path id="name_10404" data-name="name 10404" d="M1844.2,921.2s-1.661,0-2,.489.929-.44,2.3.587a3.647,3.647,0,0,1,1.27,2.883S1846.989,921.685,1844.2,921.2Z" transform="translate(-437.795 -175.682)" opacity="0.7" fill="url(#linear-gradient-42)" style="mix-blend-mode: screen;isolation: isolate"></path><path id="name_10405" data-name="name 10405" d="M1364.575,1058.97a2.369,2.369,0,0,0-2.485,1.819c-.364,1.94.909,0,1.758-.3S1365.91,1059.091,1364.575,1058.97Z" transform="translate(-4.886 -299.909)" opacity="0.7" fill="url(#linear-gradient-43)" style="mix-blend-mode: screen;isolation: isolate"></path><path id="name_10406" data-name="name 10406" d="M1446.978,781.2s-.909.667.182.788,1.636.182,1.7,0A1.369,1.369,0,0,0,1446.978,781.2Z" transform="translate(-81.165 -49.355)" fill="#fee3ff"></path><path id="name_10407" data-name="name 10407" d="M1437.64,787.021a.341.341,0,1,1-.333-.273A.307.307,0,0,1,1437.64,787.021Z" transform="translate(-72.464 -54.454)" fill="#fee3ff"></path><path id="name_10408" data-name="name 10408" d="M1557.562,733.655c0,.134-.285.243-.636.243s-.637-.109-.637-.243.285-.242.637-.242S1557.562,733.522,1557.562,733.655Z" transform="translate(-180.048 -6.363)" fill="#fff"></path><path id="name_10409" data-name="name 10409" d="M1759.315,742.379c0,.184-.312.334-.7.334s-.7-.149-.7-.334.312-.333.7-.333S1759.315,742.2,1759.315,742.379Z" transform="translate(-361.853 -14.147)" fill="#fff"></path><path id="name_10410" data-name="name 10410" d="M1634.231,851.108s-1.394-.3-.606.3,1.334.909,1.515,1.515.182.364.182-.06A1.746,1.746,0,0,0,1634.231,851.108Z" transform="translate(-249.562 -112.417)" fill="#fff"></path><path id="name_10411" data-name="name 10411" d="M1465.445,876.365a.516.516,0,1,1-.516-.515A.515.515,0,0,1,1465.445,876.365Z" transform="translate(-97.206 -134.795)" fill="#ffd86c" opacity="0.43" style="mix-blend-mode: overlay;isolation: isolate"></path><path id="name_10412" data-name="name 10412" d="M1476.991,895.7a.122.122,0,1,1-.122-.121A.122.122,0,0,1,1476.991,895.7Z" transform="translate(-108.328 -152.586)" fill="#ffd86c" opacity="0.43" style="mix-blend-mode: overlay;isolation: isolate"></path><path id="name_10413" data-name="name 10413" d="M1497.888,849.73a.394.394,0,1,1-.395-.394A.395.395,0,0,1,1497.888,849.73Z" transform="translate(-126.678 -110.888)" fill="#ffd86c" opacity="0.43" style="mix-blend-mode: overlay;isolation: isolate"></path><path id="name_10414" data-name="name 10414" d="M1544.977,937.1a.819.819,0,1,1-.818-.818A.818.818,0,0,1,1544.977,937.1Z" transform="translate(-168.372 -189.282)" fill="#ffd86c" opacity="0.43" style="mix-blend-mode: overlay;isolation: isolate"></path><path id="name_10415" data-name="name 10415" d="M1553.083,924.8a.242.242,0,1,1-.243-.243A.242.242,0,0,1,1553.083,924.8Z" transform="translate(-176.72 -178.715)" fill="#ffd86c" opacity="0.43" style="mix-blend-mode: overlay;isolation: isolate"></path><path id="name_10416" data-name="name 10416" d="M1565.892,937.38a.485.485,0,1,1-.484-.485A.485.485,0,0,1,1565.892,937.38Z" transform="translate(-187.832 -189.838)" fill="#ffd86c" opacity="0.43" style="mix-blend-mode: overlay;isolation: isolate"></path><path id="name_10417" data-name="name 10417" d="M1479.372,980.756a.7.7,0,1,1-.7-.7A.7.7,0,0,1,1479.372,980.756Z" transform="translate(-109.437 -228.757)" fill="#ffd86c" opacity="0.43" style="mix-blend-mode: overlay;isolation: isolate"></path><path id="name_10418" data-name="name 10418" d="M1496.708,1002.065a.424.424,0,1,1-.424-.424A.424.424,0,0,1,1496.708,1002.065Z" transform="translate(-125.559 -248.217)" fill="#ffd86c" opacity="0.43" style="mix-blend-mode: overlay;isolation: isolate"></path><path id="name_10419" data-name="name 10419" d="M1480.5,964.361a.333.333,0,1,1-.333-.333A.333.333,0,0,1,1480.5,964.361Z" transform="translate(-111.11 -214.303)" fill="#ffd86c" opacity="0.43" style="mix-blend-mode: overlay;isolation: isolate"></path><path id="name_10420" data-name="name 10420" d="M1495.114,979.066a.242.242,0,1,1-.242-.243A.243.243,0,0,1,1495.114,979.066Z" transform="translate(-124.451 -227.643)" fill="#ffd86c" opacity="0.43" style="mix-blend-mode: overlay;isolation: isolate"></path><path id="name_10421" data-name="name 10421" d="M1762.773,924.209a.879.879,0,1,1-.879-.879A.878.878,0,0,1,1762.773,924.209Z" transform="translate(-364.645 -177.606)" fill="#ffd86c" opacity="0.43" style="mix-blend-mode: overlay;isolation: isolate"></path><path id="name_10422" data-name="name 10422" d="M1746.868,936a.334.334,0,1,1-.332-.333A.333.333,0,0,1,1746.868,936Z" transform="translate(-351.287 -188.728)" fill="#ffd86c" opacity="0.43" style="mix-blend-mode: overlay;isolation: isolate"></path><path id="name_10423" data-name="name 10423" d="M1751.307,871.616a.7.7,0,1,1-.7-.7A.7.7,0,0,1,1751.307,871.616Z" transform="translate(-354.633 -130.348)" fill="#ffd86c" opacity="0.43" style="mix-blend-mode: overlay;isolation: isolate"></path><path id="name_10424" data-name="name 10424" d="M1786.774,1002.186a.545.545,0,1,1-.547-.545A.545.545,0,0,1,1786.774,1002.186Z" transform="translate(-386.888 -248.217)" fill="#ffd86c" opacity="0.43" style="mix-blend-mode: overlay;isolation: isolate"></path><path id="name_10425" data-name="name 10425" d="M1787.389,1058.612a.242.242,0,1,1-.242-.243A.242.242,0,0,1,1787.389,1058.612Z" transform="translate(-387.988 -299.368)" fill="#ffd86c" opacity="0.43" style="mix-blend-mode: overlay;isolation: isolate"></path><path id="name_10426" data-name="name 10426" d="M1684.9,1092.146a.485.485,0,1,1-.485-.486A.485.485,0,0,1,1684.9,1092.146Z" transform="translate(-295.135 -329.385)" fill="#ffd86c" opacity="0.43" style="mix-blend-mode: overlay;isolation: isolate"></path><path id="name_10427" data-name="name 10427" d="M1711.15,1106.2a.97.97,0,1,1-.97-.97A.97.97,0,0,1,1711.15,1106.2Z" transform="translate(-317.932 -341.625)" fill="#ffd86c" opacity="0.43" style="mix-blend-mode: overlay;isolation: isolate"></path><path id="name_10428" data-name="name 10428" d="M1699.346,1109.229a.3.3,0,1,1-.3-.3A.3.3,0,0,1,1699.346,1109.229Z" transform="translate(-308.492 -344.954)" fill="#ffd86c" opacity="0.43" style="mix-blend-mode: overlay;isolation: isolate"></path><path id="name_10429" data-name="name 10429" d="M1638.7,1102.031a1.122,1.122,0,1,1-1.122-1.123A1.122,1.122,0,0,1,1638.7,1102.031Z" transform="translate(-252.332 -337.724)" fill="#ffd86c" opacity="0.43" style="mix-blend-mode: overlay;isolation: isolate"></path><path id="name_10430" data-name="name 10430" d="M1619.8,1131.436a.3.3,0,1,1-.3-.3A.3.3,0,0,1,1619.8,1131.436Z" transform="translate(-236.764 -364.977)" fill="#ffd86c" opacity="0.43" style="mix-blend-mode: overlay;isolation: isolate"></path><path id="name_10431" data-name="name 10431" d="M1670.362,841.006a.3.3,0,1,1-.3-.3A.3.3,0,0,1,1670.362,841.006Z" transform="translate(-282.358 -103.104)" fill="#ffd86c" opacity="0.43" style="mix-blend-mode: overlay;isolation: isolate"></path><path id="name_10432" data-name="name 10432" d="M1687.61,880.162a.607.607,0,1,1-.607-.606A.607.607,0,0,1,1687.61,880.162Z" transform="translate(-297.363 -138.136)" fill="#ffd86c" opacity="0.43" style="mix-blend-mode: overlay;isolation: isolate"></path><path id="name_10433" data-name="name 10433" d="M1575.452,799.728a.334.334,0,1,1-.333-.333A.333.333,0,0,1,1575.452,799.728Z" transform="translate(-196.725 -65.857)" fill="#ffd86c" opacity="0.43" style="mix-blend-mode: overlay;isolation: isolate"></path><path id="name_10434" data-name="name 10434" d="M1602.469,810.765a.273.273,0,1,1-.273-.272A.272.272,0,0,1,1602.469,810.765Z" transform="translate(-221.196 -75.864)" fill="#ffd86c" opacity="0.43" style="mix-blend-mode: overlay;isolation: isolate"></path><path id="name_10435" data-name="name 10435" d="M1545.861,800.959a.333.333,0,1,1-.333-.334A.333.333,0,0,1,1545.861,800.959Z" transform="translate(-170.044 -66.966)" fill="#ffd86c" opacity="0.43" style="mix-blend-mode: overlay;isolation: isolate"></path><path id="name_10436" data-name="name 10436" d="M1698.088,804.317a.606.606,0,1,1-.607-.606A.606.606,0,0,1,1698.088,804.317Z" transform="translate(-306.811 -69.749)" fill="#ffd86c" opacity="0.43" style="mix-blend-mode: overlay;isolation: isolate"></path><path id="name_10437" data-name="name 10437" d="M1721.907,808.825a.182.182,0,1,1-.182-.182A.181.181,0,0,1,1721.907,808.825Z" transform="translate(-329.053 -74.196)" fill="#ffd86c" opacity="0.43" style="mix-blend-mode: overlay;isolation: isolate"></path><path id="name_10438" data-name="name 10438" d="M1475.508,927.949a.3.3,0,1,1-.3-.3A.3.3,0,0,1,1475.508,927.949Z" transform="translate(-106.663 -181.498)" fill="#ffd86c" opacity="0.43" style="mix-blend-mode: overlay;isolation: isolate"></path><circle id="name_590" data-name="name 590" cx="1.001" cy="1.001" r="1.001" transform="translate(1364.904 753.848)" fill="#ffd86c" opacity="0.43" style="mix-blend-mode: overlay;isolation: isolate"></circle><path id="name_10439" data-name="name 10439" d="M1473.654,1061.748a.3.3,0,1,1-.3-.3A.3.3,0,0,1,1473.654,1061.748Z" transform="translate(-104.991 -302.141)" fill="#ffd86c" opacity="0.43" style="mix-blend-mode: overlay;isolation: isolate"></path><path id="name_10440" data-name="name 10440" d="M1784.182,877.262a.182.182,0,1,1-.18-.182A.181.181,0,0,1,1784.182,877.262Z" transform="translate(-385.205 -135.904)" fill="#ffd86c" opacity="0.43" style="mix-blend-mode: overlay;isolation: isolate"></path><path id="name_10441" data-name="name 10441" d="M1447.643,803.333a.242.242,0,1,1-.243-.242A.243.243,0,0,1,1447.643,803.333Z" transform="translate(-81.647 -69.19)" fill="#ffd86c" opacity="0.43" style="mix-blend-mode: overlay;isolation: isolate"></path><path id="name_10442" data-name="name 10442" d="M1451.457,820.659a.3.3,0,1,1-.3-.3A.3.3,0,0,1,1451.457,820.659Z" transform="translate(-84.976 -84.757)" fill="#ffd86c" opacity="0.43" style="mix-blend-mode: overlay;isolation: isolate"></path><path id="name_10443" data-name="name 10443" d="M1396.747,1078.177a.7.7,0,1,1-.7-.7A.7.7,0,0,1,1396.747,1078.177Z" transform="translate(-34.935 -316.6)" fill="#ffd86c" opacity="0.43" style="mix-blend-mode: overlay;isolation: isolate"></path><path id="name_10444" data-name="name 10444" d="M1408.665,1061.627a.182.182,0,1,1-.182-.182A.181.181,0,0,1,1408.665,1061.627Z" transform="translate(-46.611 -302.141)" fill="#ffd86c" opacity="0.43" style="mix-blend-mode: overlay;isolation: isolate"></path><path id="name_10445" data-name="name 10445" d="M1565.085,1187.318a.7.7,0,1,1-.7-.7A.7.7,0,0,1,1565.085,1187.318Z" transform="translate(-186.722 -415.009)" fill="#ffd86c" opacity="0.43" style="mix-blend-mode: overlay;isolation: isolate"></path><path id="name_10446" data-name="name 10446" d="M1547.041,1195.557a.3.3,0,1,1-.3-.3A.3.3,0,0,1,1547.041,1195.557Z" transform="translate(-171.163 -422.794)" fill="#ffd86c" opacity="0.43" style="mix-blend-mode: overlay;isolation: isolate"></path><path id="name_10447" data-name="name 10447" d="M1770.92,1163.83a.636.636,0,1,1-.637-.637A.637.637,0,0,1,1770.92,1163.83Z" transform="translate(-372.428 -393.885)" fill="#ffd86c" opacity="0.43" style="mix-blend-mode: overlay;isolation: isolate"></path><path id="name_10448" data-name="name 10448" d="M1758.969,1178.2a.212.212,0,1,1-.212-.213A.213.213,0,0,1,1758.969,1178.2Z" transform="translate(-362.417 -407.225)" fill="#ffd86c" opacity="0.43" style="mix-blend-mode: overlay;isolation: isolate"></path><path id="name_10449" data-name="name 10449" d="M1858.723,958.311a.455.455,0,1,1-.455-.455A.455.455,0,0,1,1858.723,958.311Z" transform="translate(-451.925 -208.738)" fill="#ffd86c" opacity="0.43" style="mix-blend-mode: overlay;isolation: isolate"></path><path id="name_10450" data-name="name 10450" d="M1844.118,970.432a.242.242,0,1,1-.242-.242A.242.242,0,0,1,1844.118,970.432Z" transform="translate(-439.139 -219.859)" fill="#ffd86c" opacity="0.43" style="mix-blend-mode: overlay;isolation: isolate"></path><path id="name_10451" data-name="name 10451" d="M1844.481,936.7a.424.424,0,1,1-.423-.424A.423.423,0,0,1,1844.481,936.7Z" transform="translate(-439.139 -189.282)" fill="#ffd86c" opacity="0.43" style="mix-blend-mode: overlay;isolation: isolate"></path><path id="name_10452" data-name="name 10452" d="M1760.311,773.452a.576.576,0,1,1-.575-.576A.576.576,0,0,1,1760.311,773.452Z" transform="translate(-362.972 -41.946)" fill="#ffd86c" opacity="0.43" style="mix-blend-mode: overlay;isolation: isolate"></path><path id="name_10453" data-name="name 10453" d="M1752.182,778.021a.212.212,0,1,1-.212-.213A.213.213,0,0,1,1752.182,778.021Z" transform="translate(-356.297 -46.393)" fill="#ffd86c" opacity="0.43" style="mix-blend-mode: overlay;isolation: isolate"></path><path id="name_10454" data-name="name 10454" d="M1743.107,756.216a.606.606,0,1,1-.6-.606A.606.606,0,0,1,1743.107,756.216Z" transform="translate(-347.404 -26.377)" fill="#ffd86c" opacity="0.43" style="mix-blend-mode: overlay;isolation: isolate"></path><path id="name_10455" data-name="name 10455" d="M1732.515,770.037a.242.242,0,1,1-.242-.242A.241.241,0,0,1,1732.515,770.037Z" transform="translate(-338.51 -39.168)" fill="#ffd86c" opacity="0.43" style="mix-blend-mode: overlay;isolation: isolate"></path><path id="name_10456" data-name="name 10456" d="M1766.128,755.086a.09.09,0,1,1-.09-.091A.091.091,0,0,1,1766.128,755.086Z" transform="translate(-369.091 -25.823)" fill="#ffd86c" opacity="0.43" style="mix-blend-mode: overlay;isolation: isolate"></path><path id="name_10457" data-name="name 10457" d="M1561.7,743.211a.546.546,0,1,1-.546-.545A.546.546,0,0,1,1561.7,743.211Z" transform="translate(-183.939 -14.706)" fill="#ffd86c" opacity="0.43" style="mix-blend-mode: overlay;isolation: isolate"></path><path id="name_10458" data-name="name 10458" d="M1545.438,758.2a.122.122,0,1,1-.121-.121A.121.121,0,0,1,1545.438,758.2Z" transform="translate(-170.044 -28.601)" fill="#ffd86c" opacity="0.43" style="mix-blend-mode: overlay;isolation: isolate"></path><path id="name_10459" data-name="name 10459" d="M1635.813,980.665a.606.606,0,1,1-.607-.606A.607.607,0,0,1,1635.813,980.665Z" transform="translate(-250.659 -228.757)" fill="#ffd86c" opacity="0.43" style="mix-blend-mode: overlay;isolation: isolate"></path><path id="name_10460" data-name="name 10460" d="M1661.477,979.005a.182.182,0,1,1-.181-.182A.181.181,0,0,1,1661.477,979.005Z" transform="translate(-274.565 -227.643)" fill="#ffd86c" opacity="0.43" style="mix-blend-mode: overlay;isolation: isolate"></path><path id="name_10461" data-name="name 10461" d="M1693.234,1036.505a.333.333,0,1,1-.333-.333A.333.333,0,0,1,1693.234,1036.505Z" transform="translate(-302.927 -279.353)" fill="#ffd86c" opacity="0.43" style="mix-blend-mode: overlay;isolation: isolate"></path><path id="name_10462" data-name="name 10462" d="M1704.156,954.4a.242.242,0,1,1-.243-.242A.244.244,0,0,1,1704.156,954.4Z" transform="translate(-312.939 -205.405)" fill="#ffd86c" opacity="0.43" style="mix-blend-mode: overlay;isolation: isolate"></path><path id="name_10463" data-name="name 10463" d="M1729.927,1014.733s-1.6-.4-.734.8,2.073,2.141,1.938,3.479.8.335,1.071-.87A2.661,2.661,0,0,0,1729.927,1014.733Z" transform="translate(-335.717 -259.964)" opacity="0.42" fill="url(#linear-gradient-44)" style="mix-blend-mode: screen;isolation: isolate"></path><path id="name_10464" data-name="name 10464" d="M1602.275,847.29a2.437,2.437,0,0,0-2.074,2.208c-.133,1.94,3.479.067,4.549,1.338s1.338,1.2,1.406-.134S1605.687,846.755,1602.275,847.29Z" transform="translate(-219.639 -108.978)" opacity="0.7" fill="url(#linear-gradient-45)" style="mix-blend-mode: screen;isolation: isolate"></path><path id="name_10465" data-name="name 10465" d="M1421.677,864.41a11.931,11.931,0,0,0-2.459,5.961c-.16,3.132.691,2.469,2.1-.909S1423.531,863.2,1421.677,864.41Z" transform="translate(-56.437 -124.226)" opacity="0.49" fill="url(#linear-gradient-46)" style="mix-blend-mode: screen;isolation: isolate"></path><path id="name_10466" data-name="name 10466" d="M1778.353,937.744s.991,2.81,0,8.528c-.84,4.845-4.005,9.367-5.685,10.723S1778.547,951.245,1778.353,937.744Z" transform="translate(-374.931 -190.603)" fill="#f26751"></path></g></svg>