<svg xmlns="http://www.w3.org/2000/svg" width="157.667" height="32.854" viewBox="0 0 157.667 32.854"><g id="PlayStation_4_logo_and_wordmark" transform="translate(0.001)"><g id="&#x421;&#x433;&#x440;&#x443;&#x43F;&#x43F;&#x438;&#x440;&#x43E;&#x432;&#x430;&#x442;&#x44C;_9597" data-name="&#x421;&#x433;&#x440;&#x443;&#x43F;&#x43F;&#x438;&#x440;&#x43E;&#x432;&#x430;&#x442;&#x44C; 9597" transform="translate(56.68 7.543)"><g id="&#x421;&#x433;&#x440;&#x443;&#x43F;&#x43F;&#x438;&#x440;&#x43E;&#x432;&#x430;&#x442;&#x44C;_9594" data-name="&#x421;&#x433;&#x440;&#x443;&#x43F;&#x43F;&#x438;&#x440;&#x43E;&#x432;&#x430;&#x442;&#x44C; 9594" transform="translate(0 0)"><path id="&#x41A;&#x43E;&#x43D;&#x442;&#x443;&#x440;_7589" data-name="&#x41A;&#x43E;&#x43D;&#x442;&#x443;&#x440; 7589" d="M281.589,24.062H180.8v20.4H281.783v-20.4ZM277.451,41.98h1.764v.261h-.728v2.012h-.307V42.241h-.729V41.98Z" transform="translate(-180.797 -24.062)" fill="none"></path><path id="&#x41A;&#x43E;&#x43D;&#x442;&#x443;&#x440;_7590" data-name="&#x41A;&#x43E;&#x43D;&#x442;&#x443;&#x440; 7590" d="M489.832,83.491h.308V81.479h.728v-.261H489.1v.261h.729Z" transform="translate(-392.449 -63.3)" fill="#7a4ff4"></path></g><g id="&#x421;&#x433;&#x440;&#x443;&#x43F;&#x43F;&#x438;&#x440;&#x43E;&#x432;&#x430;&#x442;&#x44C;_9595" data-name="&#x421;&#x433;&#x440;&#x443;&#x43F;&#x43F;&#x438;&#x440;&#x43E;&#x432;&#x430;&#x442;&#x44C; 9595" transform="translate(0 0)"><path id="&#x41A;&#x43E;&#x43D;&#x442;&#x443;&#x440;_7591" data-name="&#x41A;&#x43E;&#x43D;&#x442;&#x443;&#x440; 7591" d="M281.589,24.062H180.8v20.4H281.783v-20.4ZM279.5,41.98h.424l.659,1.941.637-1.941h.371v2.273h-.254V42.407l-.612,1.847h-.3l-.612-1.847v1.847H279.5V41.98Z" transform="translate(-180.797 -24.062)" fill="none"></path><path id="&#x41A;&#x43E;&#x43D;&#x442;&#x443;&#x440;_7592" data-name="&#x41A;&#x43E;&#x43D;&#x442;&#x443;&#x440; 7592" d="M495.939,81.644l.612,1.847h.3l.612-1.847v1.847h.254V81.218h-.37l-.638,1.941-.659-1.941h-.424v2.273h.307Z" transform="translate(-396.931 -63.3)" fill="#7a4ff4"></path></g><path id="&#x41A;&#x43E;&#x43D;&#x442;&#x443;&#x440;_7593" data-name="&#x41A;&#x43E;&#x43D;&#x442;&#x443;&#x440; 7593" d="M292.208,38.809v-9.4c0-1.917.895-3.29,2.8-3.29h11.771a.152.152,0,0,0,.141-.142V24.11a.126.126,0,0,0-.011-.048H292.52a5,5,0,0,0-4.644,5.35v9.4c0,1.917-.92,3.29-2.8,3.29H272.642a.136.136,0,0,0-.141.142v1.87a.164.164,0,0,0,.1.156h14.114C290.4,44.171,292.208,41.822,292.208,38.809Z" transform="translate(-243.752 -24.062)" fill="#7a4ff4"></path><path id="&#x41A;&#x43E;&#x43D;&#x442;&#x443;&#x440;_7594" data-name="&#x41A;&#x43E;&#x43D;&#x442;&#x443;&#x440; 7594" d="M180.894,44.267h4.133a.164.164,0,0,0,.1-.156V38.122c0-1.917,1.083-3.243,2.66-3.243h17.023c3.838,0,5.7-2.367,5.7-5.468a5,5,0,0,0-4.644-5.35H180.817c-.007.016-.019.028-.019.048v1.87a.125.125,0,0,0,.141.142h22.439c1.907,0,2.8,1.373,2.8,3.29s-.895,3.29-2.8,3.29H185.625c-2.755,0-4.827,2.344-4.827,5.42v5.989A.149.149,0,0,0,180.894,44.267Z" transform="translate(-180.798 -24.062)" fill="#7a4ff4"></path><g id="&#x421;&#x433;&#x440;&#x443;&#x43F;&#x43F;&#x438;&#x440;&#x43E;&#x432;&#x430;&#x442;&#x44C;_9596" data-name="&#x421;&#x433;&#x440;&#x443;&#x43F;&#x43F;&#x438;&#x440;&#x43E;&#x432;&#x430;&#x442;&#x44C; 9596" transform="translate(61.24 0)"><path id="&#x41A;&#x43E;&#x43D;&#x442;&#x443;&#x440;_7595" data-name="&#x41A;&#x43E;&#x43D;&#x442;&#x443;&#x440; 7595" d="M393.135,48.259h18.956a.154.154,0,0,0,.141-.142V36.448a.214.214,0,0,0-.355-.189L393.019,47.928c-.119.071-.166.142-.141.237C392.9,48.212,392.972,48.259,393.135,48.259Z" transform="translate(-387.625 -32.4)" fill="none"></path><path id="&#x41A;&#x43E;&#x43D;&#x442;&#x443;&#x440;_7596" data-name="&#x41A;&#x43E;&#x43D;&#x442;&#x443;&#x440; 7596" d="M378,42.1h22.6a.107.107,0,0,1,.116.095v1.917a.137.137,0,0,0,.141.142h4.074a.135.135,0,0,0,.141-.142v-1.87a.153.153,0,0,1,.141-.142h4.049a.136.136,0,0,0,.141-.142V40.063a.136.136,0,0,0-.141-.142h-4.049a.154.154,0,0,1-.141-.142V26.122c0-1.114-.414-1.824-1.11-2.06h-1.179a4.527,4.527,0,0,0-1.2.521L377.248,39.614c-.942.592-1.272,1.254-1.036,1.751C376.4,41.791,376.94,42.1,378,42.1Zm3.531-2.509,18.859-11.669a.214.214,0,0,1,.355.189V39.779a.153.153,0,0,1-.141.142H381.649c-.163,0-.236-.047-.258-.095C381.366,39.732,381.413,39.661,381.532,39.59Z" transform="translate(-376.138 -24.062)" fill="#7a4ff4"></path></g></g><g id="&#x421;&#x433;&#x440;&#x443;&#x43F;&#x43F;&#x438;&#x440;&#x43E;&#x432;&#x430;&#x442;&#x44C;_9599" data-name="&#x421;&#x433;&#x440;&#x443;&#x43F;&#x43F;&#x438;&#x440;&#x43E;&#x432;&#x430;&#x442;&#x44C; 9599" transform="translate(-0.001)"><path id="&#x41A;&#x43E;&#x43D;&#x442;&#x443;&#x440;_7597" data-name="&#x41A;&#x43E;&#x43D;&#x442;&#x443;&#x440; 7597" d="M50.369,0c1.836.342,3.642.831,5.438,1.341,1.028.3,2.052.607,3.071.936a22.181,22.181,0,0,1,4.641,1.947,9.153,9.153,0,0,1,1.8,1.382,6.884,6.884,0,0,1,1.4,1.961,10.885,10.885,0,0,1,.912,4.242,13,13,0,0,1-.148,2.832,6.661,6.661,0,0,1-.841,2.315,4.192,4.192,0,0,1-1.562,1.507,4.13,4.13,0,0,1-2.033.479,7.153,7.153,0,0,1-3.059-.774c-.017-3.183,0-6.367-.008-9.549A9.121,9.121,0,0,0,59.9,6.894a2.023,2.023,0,0,0-.607-1.183,1.763,1.763,0,0,0-.825-.386.844.844,0,0,0-.811.313,2.294,2.294,0,0,0-.406,1.387q0,12.782,0,25.564-3.438-1.09-6.877-2.182Q50.366,15.2,50.369,0Z" transform="translate(-34.577)" fill="#7a4ff4"></path><path id="&#x41A;&#x43E;&#x43D;&#x442;&#x443;&#x440;_7598" data-name="&#x41A;&#x43E;&#x43D;&#x442;&#x443;&#x440; 7598" d="M5.488,61.818c2.989-1.058,5.974-2.126,8.964-3.181,0,1.173,0,2.347,0,3.522a4.181,4.181,0,0,1-.012.477c-2.363.838-4.722,1.69-7.083,2.533a2.528,2.528,0,0,0-.915.514.446.446,0,0,0-.149.458.815.815,0,0,0,.469.387,4.9,4.9,0,0,0,1.636.266,9.184,9.184,0,0,0,1.835-.189,7.509,7.509,0,0,0,1.187-.363c1.009-.365,2.018-.733,3.028-1.094.008.993,0,1.986,0,2.979,0,.2.009.4-.011.6a23.345,23.345,0,0,1-3.758.394,22.429,22.429,0,0,1-7.5-1.13A6.75,6.75,0,0,1,.949,66.951,2.541,2.541,0,0,1,.095,65.88a1.477,1.477,0,0,1,.044-1.151,2.2,2.2,0,0,1,.778-.853A13.1,13.1,0,0,1,3.3,62.625C4.018,62.321,4.759,62.084,5.488,61.818Z" transform="translate(0.001 -40.254)" fill="#7a4ff4"></path><path id="&#x41A;&#x43E;&#x43D;&#x442;&#x443;&#x440;_7599" data-name="&#x41A;&#x43E;&#x43D;&#x442;&#x443;&#x440; 7599" d="M82.027,64.254c.678-.078,1.36-.1,2.041-.121a22.478,22.478,0,0,1,6.639.96c.421.128.828.293,1.247.427a6.309,6.309,0,0,1,2.093,1.141,1.821,1.821,0,0,1,.674,1.274,1.59,1.59,0,0,1-.431,1.107,6.1,6.1,0,0,1-1.849,1.3,20.51,20.51,0,0,1-2.236.878q-6.871,2.467-13.742,4.936,0-1.925,0-3.849c.007-.051-.021-.14.051-.154q5.228-1.86,10.455-3.727a4.8,4.8,0,0,0,1.379-.624.517.517,0,0,0,.244-.553.828.828,0,0,0-.468-.379,4.8,4.8,0,0,0-1.645-.262A8.229,8.229,0,0,0,83.909,67c-2.483.87-4.961,1.751-7.444,2.618q0-2.067,0-4.132A25.623,25.623,0,0,1,82.027,64.254Z" transform="translate(-52.492 -44.027)" fill="#7a4ff4"></path><g id="&#x421;&#x433;&#x440;&#x443;&#x43F;&#x43F;&#x438;&#x440;&#x43E;&#x432;&#x430;&#x442;&#x44C;_9598" data-name="&#x421;&#x433;&#x440;&#x443;&#x43F;&#x43F;&#x438;&#x440;&#x43E;&#x432;&#x430;&#x442;&#x44C; 9598" transform="translate(38.327 29.707)"><path id="&#x41A;&#x43E;&#x43D;&#x442;&#x443;&#x440;_7600" data-name="&#x41A;&#x43E;&#x43D;&#x442;&#x443;&#x440; 7600" d="M123.646,94.771a1.576,1.576,0,1,1-1.267.951A1.588,1.588,0,0,1,123.646,94.771Zm-.118.289a1.312,1.312,0,0,0-.411,2.376,1.309,1.309,0,0,0,1.968-1.45,1.337,1.337,0,0,0-.649-.809A1.308,1.308,0,0,0,123.528,95.061Z" transform="translate(-122.255 -94.76)" fill="#7a4ff4"></path><path id="&#x41A;&#x43E;&#x43D;&#x442;&#x443;&#x440;_7601" data-name="&#x41A;&#x43E;&#x43D;&#x442;&#x443;&#x440; 7601" d="M125.115,96.894c.282,0,.566,0,.849,0a.613.613,0,0,1,.449.162.557.557,0,0,1,.092.477c-.018.107-.112.17-.18.244.059.052.135.1.149.187a4.133,4.133,0,0,0,.05.495.392.392,0,0,1,.069.181c-.117,0-.234,0-.351,0-.079-.186-.02-.4-.069-.587a.176.176,0,0,0-.177-.124c-.191-.008-.383,0-.574,0,0,.238.007.476-.006.714-.1,0-.2,0-.3,0C125.112,98.059,125.115,97.477,125.115,96.894Zm.307.277q0,.241,0,.483c.171,0,.342,0,.514,0a.294.294,0,0,0,.239-.089.306.306,0,0,0,0-.308c-.044-.074-.137-.081-.214-.086C125.784,97.168,125.6,97.171,125.422,97.171Z" transform="translate(-124.218 -96.224)" fill="#7a4ff4"></path></g></g></g></svg>