<svg xmlns="http://www.w3.org/2000/svg" width="22.051" height="15.504" viewBox="0 0 22.051 15.504"><g id="open-menu" transform="translate(0 -76)"><g transform="translate(0 82.891)"><g transform="translate(0 0)"><path d="M21.189,236H.861a.861.861,0,1,0,0,1.723H21.189a.861.861,0,1,0,0-1.723Z" transform="translate(0 -236)"></path></g></g><g transform="translate(0 76)"><g transform="translate(0 0)"><path d="M21.189,76H.861a.861.861,0,0,0,0,1.723H21.189a.861.861,0,1,0,0-1.723Z" transform="translate(0 -76)"></path></g></g><g transform="translate(0 89.782)"><g transform="translate(0 0)"><path d="M21.189,396H.861a.861.861,0,0,0,0,1.723H21.189a.861.861,0,0,0,0-1.723Z" transform="translate(0 -396)"></path></g></g></g></svg>