<svg xmlns="http://www.w3.org/2000/svg" width="1919.004" height="409.002" viewBox="0 0 1919.004 409.002"><path id="&#x412;&#x44B;&#x447;&#x438;&#x442;&#x430;&#x43D;&#x438;&#x435;_1" data-name="&#x412;&#x44B;&#x447;&#x438;&#x442;&#x430;&#x43D;&#x438;&#x435; 1" d="M17255,19123.5H15336v-409l1919,0,0,409h0Zm-253.494-407.934c-110.809,0-185.258,81.8-185.258,203.553,0,29.875,4.443,57.826,13.209,83.08,8.555,24.646,21.059,46.271,37.16,64.273a164.328,164.328,0,0,0,57.406,41.484c22.5,9.764,47.383,14.715,73.945,14.715,101.287,0,164.773-53.643,178.77-151.043l-77.291,0a152.887,152.887,0,0,1-5.133,20.854,110.326,110.326,0,0,1-7.377,17.535,86.422,86.422,0,0,1-9.551,14.381,75.886,75.886,0,0,1-11.645,11.4,77.435,77.435,0,0,1-13.662,8.572,91.191,91.191,0,0,1-15.605,5.922,117.682,117.682,0,0,1-17.473,3.428,159.7,159.7,0,0,1-19.262,1.109c-66.133,0-105.617-49.629-105.617-132.754v-5.9c0-20.4,2.461-39.105,7.314-55.588,4.781-16.248,11.875-30.3,21.084-41.758a91.446,91.446,0,0,1,33.584-26.273c13.275-6.057,28.352-9.125,44.811-9.125a152.218,152.218,0,0,1,18.244,1.045,114.446,114.446,0,0,1,16.633,3.23,90.33,90.33,0,0,1,14.959,5.553,78.255,78.255,0,0,1,13.223,8.018,76.48,76.48,0,0,1,11.424,10.615,85.583,85.583,0,0,1,9.568,13.354,107.283,107.283,0,0,1,7.643,16.229,144.417,144.417,0,0,1,5.658,19.244h77.293C17159.105,18767.113,17097.293,18715.566,17001.508,18715.566Zm-1410.687,0c-27.557,0-53.279,4.928-76.453,14.643a167.647,167.647,0,0,0-59.47,41.852c-16.735,18.34-29.709,40.535-38.562,65.971-9.108,26.168-13.727,55.436-13.727,86.986,0,29.613,4.286,57.088,12.74,81.662,8.267,24.029,20.407,44.99,36.083,62.3a157.463,157.463,0,0,0,56.216,39.73c22.062,9.264,46.67,13.961,73.143,13.961,25.585,0,48.463-5.41,68-16.078a115.86,115.86,0,0,0,25.923-19.268,122.213,122.213,0,0,0,19.949-26.016V19115h66.668v-195.291l-163.429,0v61.949l86.729,0a83.941,83.941,0,0,1-10.094,32.049,79.71,79.71,0,0,1-20.659,23.922,92.03,92.03,0,0,1-28.735,14.963,112.567,112.567,0,0,1-34.32,5.174c-17.082,0-32.742-2.941-46.545-8.74a94.771,94.771,0,0,1-35.1-25.334c-9.674-11.119-17.128-24.777-22.153-40.6-5.12-16.113-7.717-34.463-7.717-54.537v-5.9c0-21.691,2.705-41.6,8.039-59.186,5.177-17.055,12.795-31.832,22.643-43.918a97.32,97.32,0,0,1,35.032-27.322c13.591-6.24,28.8-9.4,45.209-9.4a152.788,152.788,0,0,1,18.135,1.031,113.273,113.273,0,0,1,16.324,3.152,87.35,87.35,0,0,1,14.472,5.336,73.423,73.423,0,0,1,12.577,7.588,69.567,69.567,0,0,1,10.641,9.912,75.226,75.226,0,0,1,8.662,12.3,91.321,91.321,0,0,1,6.644,14.768,120.548,120.548,0,0,1,4.583,17.3l77.885,0a207.9,207.9,0,0,0-7.543-32.043,169.118,169.118,0,0,0-11.864-27.953,146.474,146.474,0,0,0-15.972-23.8,138.219,138.219,0,0,0-19.863-19.6,143.509,143.509,0,0,0-23.54-15.342,162.138,162.138,0,0,0-27.006-11.025,194.116,194.116,0,0,0-30.255-6.656A241.257,241.257,0,0,0,15590.82,18715.566Zm437.189,7.672-85.549,0-147.5,391.76h74.337l37.762-104.43v0h146.908l37.172,104.432h79.649Zm663.75,0V19115h74.93l0-391.762-74.93,0,0,0Zm-135.7,64.9h0V19115h73.754l0-391.762-120.365,0-91.449,286.15-84.962-286.152-124.486,0V19115h70.8v-324.5l104.434,324.5h63.717Zm-522.736,160.482h-104.435l53.1-145.145,51.334,145.143Z" transform="translate(-15335.998 -18714.498)" fill="#0c0c11"></path></svg>