<svg xmlns="http://www.w3.org/2000/svg" width="132.407" height="40" viewBox="0 0 132.407 40"><g id="XBOX_logo_2012" transform="translate(0.189 -0.463)"><path id="path6965" d="M598.7,70.272l-9.131-12.3L597.907,46.8h-3.133l-6.786,9.112L581.2,46.8h-3.114l8.324,11.188-9.112,12.3h3.133L587.988,60.1l7.574,10.188H598.7" transform="translate(-466.477 -37.43)" fill="#7a4ff4"></path><path id="path6967" d="M275.1,70.272l-9.112-12.3L274.307,46.8h-3.114l-6.786,9.112L257.622,46.8h-3.133l8.343,11.188-9.131,12.3h3.133L264.407,60.1l7.555,10.188H275.1" transform="translate(-205.084 -37.43)" fill="#7a4ff4"></path><path id="path6969" d="M360.59,67.811h-6.978V59.276h6.978c2.653,0,5.805.711,5.805,4.075C366.4,67.234,362.743,67.811,360.59,67.811Zm-6.978-18.57h6.978c1.884,0,5.056.461,5.056,3.729,0,2.461-1.845,3.941-5.056,3.941h-6.978Zm13.379,9.612a6.191,6.191,0,0,0-1.557-.98,5.32,5.32,0,0,0,2.845-4.69c0-1.5-.557-6.382-7.708-6.382H350.94V56.931h-3.21c-.423.538-1.365,1.826-1.73,2.345h4.94v11h9.631c5.229,0,8.477-2.634,8.477-6.863a5.65,5.65,0,0,0-2.057-4.556" transform="translate(-279.641 -37.43)" fill="#7a4ff4"></path><path id="path6971" d="M483.442,66.049c-5.094,0-8.65-4.018-8.65-9.785s3.556-9.785,8.65-9.785c5.075,0,8.612,4.018,8.612,9.785C492.054,62.012,488.517,66.049,483.442,66.049Zm0-22.049c-6.69,0-11.342,5.036-11.342,12.264s4.652,12.264,11.342,12.264c6.651,0,11.3-5.036,11.3-12.264S490.093,44,483.442,44" transform="translate(-381.5 -35.168)" fill="#7a4ff4"></path><g id="g4146" transform="translate(-0.189 0.463)"><path id="path4148" d="M18.989,36.754a19.884,19.884,0,0,1-8.866-3.149C7.88,32.139,7.374,31.54,7.374,30.336c0-2.412,2.652-6.64,7.182-11.455,2.576-2.736,6.161-5.943,6.547-5.859.755.169,6.782,6.058,9.039,8.826,3.571,4.388,5.215,7.977,4.38,9.576-.635,1.217-4.566,3.593-7.453,4.5A21.787,21.787,0,0,1,18.989,36.754ZM4.349,27.831a20.82,20.82,0,0,1-3.26-9.754A15.546,15.546,0,0,1,1.431,13.2,19.981,19.981,0,0,1,6.286,3.326c1-1.044,1.093-1.07,2.314-.657,1.484.5,3.065,1.595,5.521,3.82l1.435,1.3-.782.964c-3.638,4.468-7.471,10.8-8.915,14.72-.786,2.128-1.1,4.268-.764,5.157C5.322,29.226,5.113,29,4.349,27.831Zm32.691.484a9.734,9.734,0,0,0-.6-4.215c-1.177-3.607-5.126-10.323-8.75-14.884L26.553,7.781l1.235-1.137a25.773,25.773,0,0,1,3.94-3.123,7.569,7.569,0,0,1,2.9-1.119c.36,0,1.63,1.319,2.656,2.763a20.9,20.9,0,0,1,3.349,7.755,25.923,25.923,0,0,1,.062,7.529,23.926,23.926,0,0,1-1.5,4.735,25.455,25.455,0,0,1-2.048,3.509C36.9,29,36.9,29,37.04,28.315ZM19.318,1.718A24.911,24.911,0,0,0,13.637-.294,10.63,10.63,0,0,0,11.74-.4c-1.177.058-1.124,0,.764-.893a19.375,19.375,0,0,1,4.655-1.55,23.821,23.821,0,0,1,7.72-.009A21.59,21.59,0,0,1,30.911-.6l.418.258L30.369-.4a17.417,17.417,0,0,0-7.68,2.132,14.956,14.956,0,0,1-1.741.777C20.895,2.5,20.157,2.145,19.318,1.718Z" transform="translate(-1.013 3.163)" fill="#7a4ff4"></path></g></g></svg>