<svg xmlns="http://www.w3.org/2000/svg" width="21" height="21" viewBox="0 0 21 21"><g class="right_bar" transform="translate(-2124 -2665)"><g transform="translate(2124 2665)" fill="none" stroke-width="1.5"><circle cx="2.5" cy="2.5" r="2.5" stroke="none"></circle><circle cx="2.5" cy="2.5" r="1.75" fill="none"></circle></g><g transform="translate(2132 2665)" fill="none" stroke-width="1.5"><circle cx="2.5" cy="2.5" r="2.5" stroke="none"></circle><circle cx="2.5" cy="2.5" r="1.75" fill="none"></circle></g><g transform="translate(2140 2665)" fill="none" stroke-width="1.5"><circle cx="2.5" cy="2.5" r="2.5" stroke="none"></circle><circle cx="2.5" cy="2.5" r="1.75" fill="none"></circle></g><g transform="translate(2124 2673)" fill="none" stroke-width="1.5"><circle cx="2.5" cy="2.5" r="2.5" stroke="none"></circle><circle cx="2.5" cy="2.5" r="1.75" fill="none"></circle></g><g transform="translate(2132 2673)" fill="none" stroke-width="1.5"><circle cx="2.5" cy="2.5" r="2.5" stroke="none"></circle><circle cx="2.5" cy="2.5" r="1.75" fill="none"></circle></g><g transform="translate(2140 2673)" fill="none" stroke-width="1.5"><circle cx="2.5" cy="2.5" r="2.5" stroke="none"></circle><circle cx="2.5" cy="2.5" r="1.75" fill="none"></circle></g><g transform="translate(2124 2681)" fill="none" stroke-width="1.5"><circle cx="2.5" cy="2.5" r="2.5" stroke="none"></circle><circle cx="2.5" cy="2.5" r="1.75" fill="none"></circle></g><g transform="translate(2132 2681)" fill="none" stroke-width="1.5"><circle cx="2.5" cy="2.5" r="2.5" stroke="none"></circle><circle cx="2.5" cy="2.5" r="1.75" fill="none"></circle></g><g transform="translate(2140 2681)" fill="none" stroke-width="1.5"><circle cx="2.5" cy="2.5" r="2.5" stroke="none"></circle><circle cx="2.5" cy="2.5" r="1.75" fill="none"></circle></g></g></svg>