<svg xmlns="http://www.w3.org/2000/svg" xmlns:xlink="http://www.w3.org/1999/xlink" width="50" height="49" viewBox="0 0 50 49"><defs><radialGradient id="radial-gradient" cx="-0.045" cy="-0.009" r="1.395" gradientTransform="translate(0.091) scale(0.818 1)" gradientUnits="objectBoundingBox"><stop offset="0" stop-color="#00ff15"></stop><stop offset="1" stop-color="#005e99"></stop></radialGradient><linearGradient id="linear-gradient" y1="0.5" x2="1" y2="0.5" gradientUnits="objectBoundingBox"><stop offset="0" stop-color="#00d7ed"></stop><stop offset="1" stop-color="#04a5eb"></stop></linearGradient><radialGradient id="radial-gradient-2" cx="0.353" cy="0.227" r="0.683" gradientTransform="translate(0.087) scale(0.827 1)" xlink:href="#radial-gradient"></radialGradient><linearGradient id="linear-gradient-2" x1="1.436" y1="1.285" x2="0.603" y2="0.58" gradientTransform="matrix(1, 0, 0, 1, 0, 0)" xlink:href="#radial-gradient"></linearGradient><linearGradient id="linear-gradient-3" x1="1.432" y1="1.286" x2="0.601" y2="0.579" gradientTransform="matrix(1, 0, 0, 1, 0, 0)" xlink:href="#radial-gradient"></linearGradient><linearGradient id="linear-gradient-4" x1="-0.098" y1="-0.135" x2="0.558" y2="0.459" gradientTransform="matrix(1, 0, 0, 1, 0, 0)" xlink:href="#radial-gradient"></linearGradient><linearGradient id="linear-gradient-5" x1="1.756" y1="1.556" x2="0.68" y2="0.645" gradientUnits="objectBoundingBox"><stop offset="0" stop-color="#00ff15"></stop><stop offset="0.995" stop-color="#fff"></stop></linearGradient><linearGradient id="linear-gradient-6" x1="0" y1="0.5" x2="1" y2="0.5" xlink:href="#linear-gradient-5"></linearGradient><radialGradient id="radial-gradient-3" cx="0.454" cy="0.366" r="0.735" gradientTransform="translate(0.053) scale(0.894 1)" xlink:href="#radial-gradient"></radialGradient><radialGradient id="radial-gradient-4" cx="0.35" cy="0.381" r="0.909" gradientTransform="translate(0.069) scale(0.862 1)" xlink:href="#radial-gradient"></radialGradient><linearGradient id="linear-gradient-7" x1="-0.872" y1="1.023" x2="0.803" y2="0.378" xlink:href="#linear-gradient"></linearGradient><radialGradient id="radial-gradient-5" cx="0.607" cy="0.257" r="0.973" gradientTransform="translate(0.073) scale(0.854 1)" xlink:href="#radial-gradient"></radialGradient><linearGradient id="linear-gradient-8" x1="1.332" y1="0.719" x2="0.03" y2="0.378" gradientTransform="matrix(1, 0, 0, 1, 0, 0)" xlink:href="#radial-gradient"></linearGradient><linearGradient id="linear-gradient-9" x1="-0.415" y1="0.924" x2="1.019" y2="0.247" gradientTransform="matrix(1, 0, 0, 1, 0, 0)" xlink:href="#radial-gradient"></linearGradient><radialGradient id="radial-gradient-6" cx="0.455" cy="0.748" r="1.226" gradientTransform="translate(0.076) scale(0.849 1)" xlink:href="#radial-gradient"></radialGradient><radialGradient id="radial-gradient-7" cx="1.082" cy="0.938" r="1.475" gradientTransform="translate(0.076) scale(0.847 1)" xlink:href="#radial-gradient"></radialGradient><linearGradient id="linear-gradient-13" x1="-0.447" y1="1.539" x2="0.701" y2="0.297" xlink:href="#linear-gradient"></linearGradient><linearGradient id="linear-gradient-14" x1="0.712" y1="0.809" x2="0.171" y2="-0.002" gradientTransform="matrix(1, 0, 0, 1, 0, 0)" xlink:href="#radial-gradient"></linearGradient><linearGradient id="linear-gradient-18" x1="0.533" y1="0.22" x2="0.905" y2="1.386" gradientUnits="objectBoundingBox"><stop offset="0" stop-color="#00ff15"></stop><stop offset="0.995" stop-color="#90ff3d"></stop></linearGradient><linearGradient id="linear-gradient-19" x1="-0.143" y1="0.312" x2="2.092" y2="0.853" xlink:href="#linear-gradient-18"></linearGradient><linearGradient id="linear-gradient-20" x1="-0.915" y1="-0.731" x2="1.485" y2="1.265" xlink:href="#linear-gradient-18"></linearGradient></defs><g id="price-icon-3" transform="translate(-171.201 -175.104)"><g id="&#x421;&#x433;&#x440;&#x443;&#x43F;&#x43F;&#x438;&#x440;&#x43E;&#x432;&#x430;&#x442;&#x44C;_9871" data-name="&#x421;&#x433;&#x440;&#x443;&#x43F;&#x43F;&#x438;&#x440;&#x43E;&#x432;&#x430;&#x442;&#x44C; 9871" transform="translate(190.913 199.354)"><path id="&#x41A;&#x43E;&#x43D;&#x442;&#x443;&#x440;_10559" data-name="&#x41A;&#x43E;&#x43D;&#x442;&#x443;&#x440; 10559" d="M364.992,384.123h0c-.02-.026-.032-.04-.032-.04s-5.476-1.954-17.269,7.05-12.193,15.276-11.584,16.185a.474.474,0,0,0,.227.161c1.37.833,10.386,3.012,19.468-2.131,3.332-1.887,8.1-6.708,9.405-10.324C366.944,390.207,366.086,385.217,364.992,384.123Z" transform="translate(-335.909 -383.906)" opacity="0.87" fill="url(#radial-gradient)"></path><path id="&#x41A;&#x43E;&#x43D;&#x442;&#x443;&#x440;_10560" data-name="&#x41A;&#x43E;&#x43D;&#x442;&#x443;&#x440; 10560" d="M506.017,519.091c-1.1.172-3.466,1.848-3.954,2.228-1.039.81-3.107,2.3-3.614,3.54-.725,1.773,1.632.564,2.411.093a25.261,25.261,0,0,0,3.729-2.784,11.076,11.076,0,0,0,1.444-1.283c.31-.4.841-1.187.474-1.68C506.418,519.085,506.245,519.055,506.017,519.091Z" transform="translate(-481.659 -505.234)" opacity="0.54" fill="url(#linear-gradient)" style="mix-blend-mode: color-burn;isolation: isolate"></path><path id="&#x41A;&#x43E;&#x43D;&#x442;&#x443;&#x440;_10561" data-name="&#x41A;&#x43E;&#x43D;&#x442;&#x443;&#x440; 10561" d="M390.724,406.058h0a.286.286,0,0,0-.028-.034s-4.683-1.672-14.768,6.029S365.5,425.119,366.02,425.9a.4.4,0,0,0,.193.138c1.172.712,7.145,3.191,16.65-1.822,2.9-1.528,6.929-5.737,8.045-8.829C392.394,411.261,391.66,406.994,390.724,406.058Z" transform="translate(-362.782 -403.622)" opacity="0.55" fill="url(#radial-gradient-2)"></path><path id="&#x41A;&#x43E;&#x43D;&#x442;&#x443;&#x440;_10562" data-name="&#x41A;&#x43E;&#x43D;&#x442;&#x443;&#x440; 10562" d="M364.447,384.051s-5.5-1.563-17.288,7.441-11.879,14.737-11.27,15.646c.44.656,5.148,1.721,17.178-7.549C366.416,389.3,364.447,384.051,364.447,384.051Z" transform="translate(-335.692 -383.943)" fill="url(#linear-gradient-2)"></path><path id="&#x41A;&#x43E;&#x43D;&#x442;&#x443;&#x440;_10563" data-name="&#x41A;&#x43E;&#x43D;&#x442;&#x443;&#x440; 10563" d="M364.666,384.051s-5.714-1.563-17.506,7.441-11.879,14.737-11.27,15.646c.44.656,5.148,1.721,17.178-7.549C366.416,389.3,364.666,384.051,364.666,384.051Z" transform="translate(-335.692 -383.943)" fill="url(#linear-gradient-3)"></path><path id="&#x41A;&#x43E;&#x43D;&#x442;&#x443;&#x440;_10564" data-name="&#x41A;&#x43E;&#x43D;&#x442;&#x443;&#x440; 10564" d="M366.072,394.007s-3.719-1.97-16.61,6.866c-9.891,6.781-11.9,13-11.4,13.7.364.5,5.834-.5,15.975-7.44C366.866,398.352,366.072,394.007,366.072,394.007Z" transform="translate(-337.756 -392.805)" fill="url(#linear-gradient-4)"></path><path id="&#x41A;&#x43E;&#x43D;&#x442;&#x443;&#x440;_10565" data-name="&#x41A;&#x43E;&#x43D;&#x442;&#x443;&#x440; 10565" d="M597.527,451.36c.1.264.376.45.9.474,1.135.053,1.671-2.365.767-2.632a.614.614,0,0,0-.409.063C598.105,449.568,597.276,450.7,597.527,451.36Z" transform="translate(-570.672 -442.502)" fill="#fff"></path><path id="&#x41A;&#x43E;&#x43D;&#x442;&#x443;&#x440;_10566" data-name="&#x41A;&#x43E;&#x43D;&#x442;&#x443;&#x440; 10566" d="M364.992,384.123h0c-.02-.026-.032-.04-.032-.04s-5.476-1.954-17.269,7.05-12.193,15.276-11.584,16.185a.474.474,0,0,0,.227.161c1.37.833,10.386,3.012,19.468-2.131,3.332-1.887,8.1-6.708,9.405-10.324C366.944,390.207,366.086,385.217,364.992,384.123Zm-28.2,22.675a.878.878,0,0,1-.2-.642,5.972,5.972,0,0,1,.361-2.1,14.522,14.522,0,0,1,1.6-3.266,27.945,27.945,0,0,1,3.432-4.281,50.41,50.41,0,0,1,5.845-5.149,48.391,48.391,0,0,1,6.42-4.21,26.537,26.537,0,0,1,4.806-2.057,14.327,14.327,0,0,1,3.241-.628,6.97,6.97,0,0,1,1.722.073.649.649,0,0,1,.535.34.764.764,0,0,1,.053.335,4.775,4.775,0,0,1-.7,1.95c-.3.578-.64,1.138-1,1.686a35.887,35.887,0,0,1-3.24,4.205,60.751,60.751,0,0,1-5.243,5.207q-.791.7-1.6,1.383a45.076,45.076,0,0,1-6.113,4.285q-.48.284-.973.547a30.843,30.843,0,0,1-3.82,1.717q-.986.368-1.993.672a5.377,5.377,0,0,1-2,.4,2.081,2.081,0,0,1-1.122-.45Zm27.8-11.717c-1.248,3.459-5.81,8.069-9,9.874a24.143,24.143,0,0,1-16.691,2.68,34.238,34.238,0,0,0,11.485-5.375c1.129-.768,5.648-4.571,6.185-5.1,3.341-3.265,6.777-7.023,8.407-11.221.012-.032.024-.067.037-.1A15.286,15.286,0,0,1,364.591,395.081Z" transform="translate(-335.909 -383.906)" opacity="0.54" fill="url(#linear-gradient-5)" style="mix-blend-mode: soft-light;isolation: isolate"></path><path id="&#x41A;&#x43E;&#x43D;&#x442;&#x443;&#x440;_10567" data-name="&#x41A;&#x43E;&#x43D;&#x442;&#x443;&#x440; 10567" d="M418.821,591.912c.184,0,.369,0,.551-.005a1.135,1.135,0,0,1,.746.155c1.049.83-2.193,1.562-2.581,1.625a10.236,10.236,0,0,1-3.93-.133c-.117-.027-.253-.077-.282-.194s.062-.217.148-.294C414.971,591.728,416.929,591.908,418.821,591.912Z" transform="translate(-405.37 -570.601)" opacity="0.48" fill="url(#linear-gradient-6)" style="mix-blend-mode: soft-light;isolation: isolate"></path><path id="&#x41A;&#x43E;&#x43D;&#x442;&#x443;&#x440;_10568" data-name="&#x41A;&#x43E;&#x43D;&#x442;&#x443;&#x440; 10568" d="M405.984,438.7c-2.38,1.6-4.863,2.987-7.293,4.526.694.942,2.08.941,3.186.97a15.69,15.69,0,0,0,4.6-.737,22.68,22.68,0,0,0,8.39-4.343c4.174-3.46,6.5-8.91,5.078-14.3.223.841-1.262,2.462-1.715,3.013-.674.819-1.4,1.594-2.143,2.351a71.908,71.908,0,0,1-8.283,7.237C407.208,437.858,406.6,438.285,405.984,438.7Z" transform="translate(-392.239 -420.621)" opacity="0.55" fill="url(#radial-gradient-3)"></path></g><g id="&#x421;&#x433;&#x440;&#x443;&#x43F;&#x43F;&#x438;&#x440;&#x43E;&#x432;&#x430;&#x442;&#x44C;_9872" data-name="&#x421;&#x433;&#x440;&#x443;&#x43F;&#x43F;&#x438;&#x440;&#x43E;&#x432;&#x430;&#x442;&#x44C; 9872" transform="translate(171.201 181.745)"><path id="&#x41A;&#x43E;&#x43D;&#x442;&#x443;&#x440;_10569" data-name="&#x41A;&#x43E;&#x43D;&#x442;&#x443;&#x440; 10569" d="M215.21,246.625c-3.961-5.647-6.524-6.117-6.524-6.117-1.2-1.618-12.351.169-22.6,7.058s-16.077,15.763-14.679,18.116c0,0,1.6,7.493,6.058,11.058a19.652,19.652,0,0,0,11.883,4.234c8.854-1.646,25.4-13.645,28.892-22.585A17.663,17.663,0,0,0,215.21,246.625Z" transform="translate(-171.201 -239.952)" opacity="0.91" fill="url(#radial-gradient-4)"></path><path id="&#x41A;&#x43E;&#x43D;&#x442;&#x443;&#x440;_10570" data-name="&#x41A;&#x43E;&#x43D;&#x442;&#x443;&#x440; 10570" d="M339.772,399.18a45.882,45.882,0,0,0,6.221-6.032c1.563-1.84,3.276-3.573,3.387-6.136a1.152,1.152,0,0,0-.149-.737,1.209,1.209,0,0,0-1-.346c-4.879-.03-9.221,2.922-13.1,5.885-4.723,3.611-9.475,7.666-11.66,13.2-1.085,2.744,3.912,1.111,4.935.661A51.328,51.328,0,0,0,339.772,399.18Z" transform="translate(-304.874 -368.115)" fill="url(#linear-gradient-7)" style="mix-blend-mode: color-burn;isolation: isolate"></path><path id="&#x41A;&#x43E;&#x43D;&#x442;&#x443;&#x440;_10571" data-name="&#x41A;&#x43E;&#x43D;&#x442;&#x443;&#x440; 10571" d="M228.963,259.18c-3.55-5.067-6.554-5.68-6.554-5.68-1.078-1.453-11.524,1.015-20.71,7.2s-15.184,14.357-13.931,16.469c0,0,1.621,6.977,5.617,10.177a17.766,17.766,0,0,0,10.766,3.786c7.934-1.478,24.253-13.277,27.385-21.3A15.528,15.528,0,0,0,228.963,259.18Z" transform="translate(-185.924 -251.749)" opacity="0.55" fill="url(#radial-gradient-5)"></path><path id="&#x41A;&#x43E;&#x43D;&#x442;&#x443;&#x440;_10572" data-name="&#x41A;&#x43E;&#x43D;&#x442;&#x443;&#x440; 10572" d="M206.407,240.469c1.313,1.751-4.816,9.567-14.442,15.975s-19.6,9.059-20.57,7.441c-1.313-2.189,4.16-10.442,13.786-16.85S205.278,238.964,206.407,240.469Z" transform="translate(-171.201 -239.952)" fill="url(#linear-gradient-8)"></path><path id="&#x41A;&#x43E;&#x43D;&#x442;&#x443;&#x440;_10573" data-name="&#x41A;&#x43E;&#x43D;&#x442;&#x443;&#x440; 10573" d="M220.185,254.855c1.376,1.186-4.846,8.345-13.349,14.005s-17.91,8.4-18.6,7.221c-.933-1.592,4.759-9.017,13.261-14.676S219.154,253.967,220.185,254.855Z" transform="translate(-186.402 -253.134)" fill="url(#linear-gradient-9)"></path><path id="&#x41A;&#x43E;&#x43D;&#x442;&#x443;&#x440;_10574" data-name="&#x41A;&#x43E;&#x43D;&#x442;&#x443;&#x440; 10574" d="M215.21,246.625c-3.961-5.647-6.524-6.117-6.524-6.117-1.2-1.618-12.351.169-22.6,7.058s-16.077,15.763-14.679,18.116c0,0,1.6,7.493,6.058,11.058a19.652,19.652,0,0,0,11.883,4.234c8.854-1.646,25.4-13.645,28.892-22.585A17.663,17.663,0,0,0,215.21,246.625Zm-28.874,1.313a47.073,47.073,0,0,1,14.519-6.591,22.206,22.206,0,0,1,5.149-.8,5.55,5.55,0,0,1,1.587.15c.824.236.908.94.686,1.758a12.841,12.841,0,0,1-2.766,4.317,48.777,48.777,0,0,1-4.927,5.069,66.977,66.977,0,0,1-7.508,5.845,65.427,65.427,0,0,1-8.347,4.763,51.355,51.355,0,0,1-6.849,2.727c-.906.281-1.821.531-2.751.721a3.8,3.8,0,0,1-2.614-.025c-1.178-.618-.47-2.442-.085-3.341a20.12,20.12,0,0,1,2.59-4.213A47.539,47.539,0,0,1,186.335,247.938Zm31.228,10.511c-3.394,8.682-19.461,20.336-28.06,21.936a19.088,19.088,0,0,1-11.541-4.113c-3.2-2.561-4.886-7.207-5.545-9.453,2.816.563,12.112-2.371,21.124-8.429a60.763,60.763,0,0,0,11.572-9.91,24.408,24.408,0,0,0,3.191-4.3,7,7,0,0,0,.7-1.611c.059-.226.042-.717.237-.847.295-.2.761.262.976.425a13.783,13.783,0,0,1,1.211,1.046,25.833,25.833,0,0,1,3.2,3.83A17.15,17.15,0,0,1,217.564,258.449Z" transform="translate(-171.201 -239.952)" opacity="0.59" fill="url(#linear-gradient-6)" style="mix-blend-mode: soft-light;isolation: isolate"></path><path id="&#x41A;&#x43E;&#x43D;&#x442;&#x443;&#x440;_10575" data-name="&#x41A;&#x43E;&#x43D;&#x442;&#x443;&#x440; 10575" d="M518.706,287.733c.309.477.606.962.921,1.429a.788.788,0,0,0,.391.36c.87.252.9-1.362.8-1.822a5.427,5.427,0,0,0-1.312-2.592c-.713-.765-2.119-1.644-3.083-.774a.559.559,0,0,0-.187.288c-.059.281.209.512.435.69A9.653,9.653,0,0,1,518.706,287.733Z" transform="translate(-478.028 -279.465)" fill="#fff"></path><path id="&#x41A;&#x43E;&#x43D;&#x442;&#x443;&#x440;_10576" data-name="&#x41A;&#x43E;&#x43D;&#x442;&#x443;&#x440; 10576" d="M236.328,481.664a10.56,10.56,0,0,0,7.732,1.378,1.437,1.437,0,0,0,.922-.377c1.231-1.427-2.585-2.746-3.328-3.3-1.707-1.27-2.748-3.317-3.855-5.077a4.823,4.823,0,0,0-1.941-1.916c-2.441-1.121-4.325,1.871-3.816,4.009A9.563,9.563,0,0,0,236.328,481.664Z" transform="translate(-225.735 -445.484)" opacity="0.48" fill="url(#linear-gradient-6)" style="mix-blend-mode: soft-light;isolation: isolate"></path><path id="&#x41A;&#x43E;&#x43D;&#x442;&#x443;&#x440;_10577" data-name="&#x41A;&#x43E;&#x43D;&#x442;&#x443;&#x440; 10577" d="M316.569,350.748a10.106,10.106,0,0,0-2.119,1.86,6.652,6.652,0,0,0-1.061,7.495,9.854,9.854,0,0,0,5.994,4.852c3.995,1.065,8.21-1.177,11.314-3.5a11.213,11.213,0,0,0,3.666-4.046c1.653-3.269,2.362-7.26.713-10.667a6.989,6.989,0,0,0-1.046-1.639c-1.629-1.821-4.467-2.113-6.788-1.354a17.328,17.328,0,0,0-5.448,3.386,23.355,23.355,0,0,1-3.634,2.676A17.609,17.609,0,0,0,316.569,350.748Z" transform="translate(-295.319 -329.899)" opacity="0.48" fill="url(#linear-gradient-6)" style="mix-blend-mode: soft-light;isolation: isolate"></path></g><g id="&#x421;&#x433;&#x440;&#x443;&#x43F;&#x43F;&#x438;&#x440;&#x43E;&#x432;&#x430;&#x442;&#x44C;_9873" data-name="&#x421;&#x433;&#x440;&#x443;&#x43F;&#x43F;&#x438;&#x440;&#x43E;&#x432;&#x430;&#x442;&#x44C; 9873" transform="translate(171.567 175.104)"><path id="&#x41A;&#x43E;&#x43D;&#x442;&#x443;&#x440;_10578" data-name="&#x41A;&#x43E;&#x43D;&#x442;&#x443;&#x440; 10578" d="M175.255,201.738a21.823,21.823,0,0,1,7.222-21.226c12.473-10.723,25.384-2.189,25.384-2.189s2.78,6.395-11.16,16.85C179.194,208.3,175.255,201.738,175.255,201.738Z" transform="translate(-174.771 -175.104)" opacity="0.87" fill="url(#radial-gradient-6)"></path><path id="&#x41A;&#x43E;&#x43D;&#x442;&#x443;&#x440;_10579" data-name="&#x41A;&#x43E;&#x43D;&#x442;&#x443;&#x440; 10579" d="M191.148,214.186s-3.141-11.32,6.347-19.475c11.274-9.691,23.415-1.97,23.415-1.97s2.1,5.869-10.5,15.318C194.582,219.927,191.148,214.186,191.148,214.186Z" transform="translate(-189.024 -188.319)" opacity="0.55" fill="url(#radial-gradient-7)"></path><path id="&#x41A;&#x43E;&#x43D;&#x442;&#x443;&#x440;_10580" data-name="&#x41A;&#x43E;&#x43D;&#x442;&#x443;&#x440; 10580" d="M217.437,234.476c-3.329,2.825-6.691,5.566-8.684,9.573-1.285,2.586,1.305,2.581,3.09,2.111,5.388-1.417,9.442-4.277,13.953-7.432,4.789-3.349,9.407-7.2,10.994-13.054.3-1.1-1.1-1-1.808-.813a46.7,46.7,0,0,0-8.7,3.505A42.376,42.376,0,0,0,217.437,234.476Z" transform="translate(-204.964 -219.662)" fill="url(#linear-gradient-13)" style="mix-blend-mode: color-burn;isolation: isolate"></path><path id="&#x41A;&#x43E;&#x43D;&#x442;&#x443;&#x440;_10581" data-name="&#x41A;&#x43E;&#x43D;&#x442;&#x443;&#x440; 10581" d="M181.309,226.2c-1.97-.657-.6-4.561.219-6.784,1.138-3.09,3.9-6.323,6.346-8.534a36.807,36.807,0,0,1,18.163-8.972c2.03-.419,7-1.352,7,1.094a12.282,12.282,0,0,1-.917,4.269c-2.095,4.748-6.41,8.448-10.462,11.487-4.5,3.371-9.768,7.118-15.461,8.046A11.016,11.016,0,0,1,181.309,226.2Z" transform="translate(-179.731 -198.69)" opacity="0.4" fill="url(#linear-gradient-14)"></path><path id="&#x41A;&#x43E;&#x43D;&#x442;&#x443;&#x440;_10582" data-name="&#x41A;&#x43E;&#x43D;&#x442;&#x443;&#x440; 10582" d="M321.906,193.236a14.146,14.146,0,0,0-3.284,1.038c-.4.185-.868.538-.741.963a69.348,69.348,0,0,1,8.236.563,10.34,10.34,0,0,0,2.1.136c.739-.057,1.609-.463,1.627-1.2s-.8-1.178-1.518-1.344A15.716,15.716,0,0,0,321.906,193.236Z" transform="translate(-303.205 -191.145)" fill="#fff"></path><path id="&#x41A;&#x43E;&#x43D;&#x442;&#x443;&#x440;_10583" data-name="&#x41A;&#x43E;&#x43D;&#x442;&#x443;&#x440; 10583" d="M446.09,216.259c.765-.044,1.869-1.269,1.12-1.984a.991.991,0,0,0-.495-.229,1.273,1.273,0,0,0-1.627,1.323A1,1,0,0,0,446.09,216.259Z" transform="translate(-417.4 -210.028)" fill="#fff"></path><path id="&#x41A;&#x43E;&#x43D;&#x442;&#x443;&#x440;_10584" data-name="&#x41A;&#x43E;&#x43D;&#x442;&#x443;&#x440; 10584" d="M211.32,246.338c-.078.15-.158.3-.237.446-1.66,3.067-4.029,7.044-7.2,8.767-2.5,1.357-3.584-2.613-3.7-4.492a12.345,12.345,0,0,1,.992-5.307,16.694,16.694,0,0,1,4.85-6.6,6.754,6.754,0,0,1,2.6-1.595c2.472-.666,3.992,1.7,4.1,3.879A9.774,9.774,0,0,1,211.32,246.338Z" transform="translate(-197.556 -231.055)" opacity="0.48" fill="url(#linear-gradient-6)" style="mix-blend-mode: soft-light;isolation: isolate"></path><path id="&#x41A;&#x43E;&#x43D;&#x442;&#x443;&#x440;_10585" data-name="&#x41A;&#x43E;&#x43D;&#x442;&#x443;&#x440; 10585" d="M207.86,178.323s-12.911-8.534-25.384,2.189a21.823,21.823,0,0,0-7.222,21.226s3.939,6.565,21.446-6.565C210.641,184.718,207.86,178.323,207.86,178.323Zm-11.474,16.5c-16.465,12.347-20.169,6.174-20.169,6.174a20.524,20.524,0,0,1,6.791-19.963c11.73-10.084,23.873-2.058,23.873-2.058S209.5,184.988,196.387,194.82Z" transform="translate(-174.771 -175.104)" opacity="0.47" fill="url(#linear-gradient-6)" style="mix-blend-mode: soft-light;isolation: isolate"></path><path id="&#x41A;&#x43E;&#x43D;&#x442;&#x443;&#x440;_10586" data-name="&#x41A;&#x43E;&#x43D;&#x442;&#x443;&#x440; 10586" d="M227.657,219.741a12.911,12.911,0,0,0,.406,2.555,22.165,22.165,0,0,0,1.547,3.587,5.277,5.277,0,0,0,2.8,2.639,7.511,7.511,0,0,0,5.061.044,15.418,15.418,0,0,0,4.5-2.491c.949-.712,1.858-1.475,2.768-2.236a16.374,16.374,0,0,0,3.544-3.664c1.928-3.078.522-7.129-2.4-9.095a14.086,14.086,0,0,0-1.863-1,18.93,18.93,0,0,0-4.648-1.723,10.317,10.317,0,0,0-11.714,11.384Z" transform="translate(-222.22 -204.848)" opacity="0.48" fill="url(#linear-gradient-6)" style="mix-blend-mode: soft-light;isolation: isolate"></path></g><path id="&#x41A;&#x43E;&#x43D;&#x442;&#x443;&#x440;_10587" data-name="&#x41A;&#x43E;&#x43D;&#x442;&#x443;&#x440; 10587" d="M341.221,185.207a7.744,7.744,0,0,1-.35,4.093,12.251,12.251,0,0,1-2.954,3.838,39.776,39.776,0,0,0-3.465,4.193,46.129,46.129,0,0,0,5.364-4.441,25.788,25.788,0,0,0,4.043-5.345,1.847,1.847,0,0,0,.286-1.8,18.943,18.943,0,0,0-.921-1.934c-1.24-2.44-.6-3.407.579-3.923a24.525,24.525,0,0,0-15.683-1.552C332.272,178.518,340.31,179.6,341.221,185.207Z" transform="translate(-139.362 -2.325)" opacity="0.48" fill="url(#linear-gradient-18)" style="mix-blend-mode: soft-light;isolation: isolate"></path><path id="&#x41A;&#x43E;&#x43D;&#x442;&#x443;&#x440;_10588" data-name="&#x41A;&#x43E;&#x43D;&#x442;&#x443;&#x440; 10588" d="M243.647,333.194a11.743,11.743,0,0,0-.972-4.14c-.492-1.092-1.266-2.193-.939-3.439a5.927,5.927,0,0,1,1.051-1.941,33.429,33.429,0,0,1,2.994-3.542,81.73,81.73,0,0,1-7.449,6.352,3.08,3.08,0,0,0-.809.78c-.517.832.128,2.863.266,3.808a34.05,34.05,0,0,1,.409,3.522,8.489,8.489,0,0,1-2.328,6.387c-3.711,3.939-10.642,6.584-15.824,4.27a26.046,26.046,0,0,1,4.215,2.727,7.62,7.62,0,0,0,4.232.944c3.474.077,7.071.127,10.268-1.236a23.982,23.982,0,0,0,2.929-1.606,18.47,18.47,0,0,1,1.636-1.106,3.623,3.623,0,0,0,1.35-.814c-.789.288-2.075,1.017-2.78.18-.547-.648-.289-1.553-.2-2.311a16.222,16.222,0,0,1,.687-2.91C242.976,337.207,243.77,335.236,243.647,333.194Z" transform="translate(-43.841 -127.309)" opacity="0.48" fill="url(#linear-gradient-19)" style="mix-blend-mode: soft-light;isolation: isolate"></path><path id="&#x41A;&#x43E;&#x43D;&#x442;&#x443;&#x440;_10589" data-name="&#x41A;&#x43E;&#x43D;&#x442;&#x443;&#x440; 10589" d="M370.762,552.865a6.954,6.954,0,0,1-3.962.019,1.361,1.361,0,0,1-.53-2.134l-3.751,2.2a15.838,15.838,0,0,1-7.167,2.468c.621.112,1.235.26,1.854.379,5.14.985,11.378.438,15.861-2.483a22.832,22.832,0,0,0,2.4-1.881q1.6-1.379,3.177-2.784a21.143,21.143,0,0,1-6.609,3.833A12.6,12.6,0,0,1,370.762,552.865Z" transform="translate(-162.426 -332.426)" opacity="0.48" fill="url(#linear-gradient-20)" style="mix-blend-mode: soft-light;isolation: isolate"></path></g></svg>